<svg width="373" height="190" viewBox="0 0 373 190" fill="none" xmlns="http://www.w3.org/2000/svg">
<path d="M0 0L-2.79392 5.05246L2.97859 4.94584L0 0ZM373 189.5C373 189 372.999 189 372.996 189C372.993 189 372.989 189 372.984 189C372.973 189 372.956 189 372.934 189C372.89 189 372.824 189 372.736 188.999C372.561 188.999 372.299 188.997 371.952 188.994C371.26 188.989 370.232 188.977 368.89 188.955C366.207 188.91 362.269 188.82 357.255 188.639C347.226 188.278 332.89 187.556 315.666 186.111C281.218 183.221 235.227 177.443 189.044 165.889C142.855 154.332 96.5104 137.008 61.3271 111.046C26.156 85.0935 2.16359 50.5328 0.582614 4.47163L-0.416798 4.50593C1.17734 50.9504 25.3871 85.7689 60.7333 111.851C96.0673 137.924 142.555 155.288 188.801 166.859C235.054 178.431 281.102 184.215 315.583 187.107C332.824 188.554 347.176 189.277 357.219 189.638C362.24 189.819 366.184 189.91 368.873 189.955C370.218 189.977 371.249 189.989 371.944 189.994C372.292 189.997 372.555 189.999 372.732 189.999C372.821 190 372.887 190 372.932 190C372.955 190 372.971 190 372.983 190C372.988 190 372.993 190 372.996 190C372.998 190 373 190 373 189.5Z" fill="#0088FF"/>
</svg>
