<svg width="498" height="190" viewBox="0 0 498 190" fill="none" xmlns="http://www.w3.org/2000/svg">
<path d="M0 0L-2.7673 5.06709L3.00457 4.9301L0 0ZM498 189.5C498 189 497.998 189 497.995 189C497.991 189 497.985 189 497.978 189C497.963 189 497.941 189 497.912 189C497.853 189 497.764 189 497.647 188.999C497.412 188.999 497.061 188.997 496.598 188.994C495.673 188.989 494.299 188.977 492.506 188.955C488.92 188.91 483.659 188.819 476.96 188.639C463.562 188.278 444.411 187.555 421.404 186.11C375.387 183.22 313.951 177.44 252.261 165.882C190.563 154.323 128.647 136.99 81.6494 111.011C34.646 85.0288 2.67167 50.4638 0.606033 4.46635L-0.39296 4.51121C1.69561 51.0194 34.035 85.8336 81.1656 111.886C128.302 137.941 190.34 155.298 252.077 166.865C313.821 178.433 375.301 184.217 421.341 187.108C444.362 188.554 463.525 189.277 476.933 189.638C483.638 189.819 488.903 189.91 492.493 189.955C494.288 189.977 495.665 189.989 496.592 189.994C497.056 189.997 497.408 189.999 497.644 189.999C497.762 190 497.851 190 497.91 190C497.94 190 497.962 190 497.977 190C497.985 190 497.99 190 497.994 190C497.998 190 498 190 498 189.5Z" fill="#0088FF"/>
</svg>
