<svg width="376" height="7" viewBox="0 0 376 7" fill="none" xmlns="http://www.w3.org/2000/svg">
<path d="M0 0L4.34079 3.80669L5.46708 -1.85589L0 0ZM376 6.5C376 6 375.999 6 375.996 6C375.994 6 375.99 6 375.985 6C375.975 6 375.96 6 375.94 6C375.901 5.99999 375.841 5.99999 375.763 5.99998C375.605 5.99996 375.37 5.99991 375.06 5.99983C374.439 5.99966 373.517 5.99931 372.313 5.99863C369.905 5.99725 366.367 5.99451 361.848 5.98902C352.81 5.97804 339.85 5.95608 324.16 5.91216C292.779 5.82431 250.477 5.64863 206.794 5.29726C163.11 4.94589 118.046 4.41884 81.1407 3.62831C44.22 2.83746 15.4998 1.78333 4.47699 0.38193L4.35087 1.37394C15.4385 2.78358 44.2218 3.83772 81.1192 4.62808C118.032 5.41875 163.101 5.94584 206.786 6.29723C250.471 6.64861 292.775 6.82431 324.157 6.91215C339.848 6.95608 352.809 6.97804 361.847 6.98902C366.366 6.99451 369.904 6.99725 372.312 6.99863C373.517 6.99931 374.439 6.99966 375.059 6.99983C375.37 6.99991 375.605 6.99996 375.762 6.99998C375.841 6.99999 375.901 6.99999 375.94 7C375.96 7 375.975 7 375.985 7C375.99 7 375.994 7 375.996 7C375.999 7 376 7 376 6.5Z" fill="#0088FF"/>
</svg>
