<svg width="371" height="653" viewBox="0 0 371 653" fill="none" xmlns="http://www.w3.org/2000/svg">
<path d="M237 117L234.126 122.007L239.9 121.993L237 117ZM299 586C299 469.441 283.863 410.773 268.608 352.498C253.364 294.265 238.003 236.429 237.512 121.469L236.512 121.473C237.003 236.552 252.386 294.48 267.641 352.752C282.884 410.982 298 469.559 298 586H299Z" fill="#0088FF"/>
<path d="M237 117L234.02 121.945L239.793 122.053L237 117ZM227 652.5C227 652.5 227.5 652.509 227.5 652.509C227.5 652.509 227.5 652.509 227.5 652.509C227.5 652.509 227.5 652.509 227.5 652.509C227.5 652.509 227.5 652.509 227.5 652.509C227.5 652.509 227.5 652.509 227.5 652.507C227.5 652.505 227.5 652.506 227.5 652.503C227.5 652.502 227.5 652.501 227.5 652.501C227.5 652.5 227.5 652.499 227.5 652.498C227.5 652.498 227.5 652.497 227.5 652.496C227.5 652.495 227.5 652.494 227.5 652.493C227.5 652.492 227.5 652.491 227.5 652.49C227.5 652.489 227.5 652.488 227.5 652.486C227.5 652.483 227.5 652.481 227.501 652.478C227.501 652.476 227.501 652.474 227.501 652.473C227.501 652.471 227.501 652.469 227.501 652.467C227.501 652.455 227.501 652.467 227.501 652.455C227.501 652.452 227.501 652.45 227.501 652.448C227.501 652.445 227.501 652.442 227.501 652.44C227.501 652.437 227.501 652.434 227.501 652.431C227.501 652.429 227.501 652.426 227.502 652.422C227.502 652.397 227.502 652.409 227.502 652.38C227.503 652.332 227.506 652.201 227.508 652.072C227.51 651.98 227.511 651.933 227.513 651.815C227.513 651.802 227.513 651.789 227.514 651.777C227.514 651.764 227.514 651.751 227.514 651.737C227.515 651.724 227.515 651.711 227.515 651.697C227.515 651.683 227.516 651.669 227.516 651.655C227.516 651.641 227.516 651.626 227.517 651.611C227.517 651.597 227.517 651.582 227.518 651.566C227.519 651.506 227.518 651.535 227.519 651.472C227.52 651.456 227.52 651.439 227.52 651.423C227.521 651.406 227.521 651.389 227.521 651.372C227.522 651.303 227.522 651.336 227.523 651.265C227.525 651.173 227.526 651.134 227.527 651.033C227.53 650.924 227.53 650.89 227.532 650.773C227.533 650.75 227.533 650.727 227.534 650.703C227.534 650.68 227.535 650.656 227.535 650.632C227.536 650.6 227.537 650.518 227.538 650.484C227.539 650.392 227.542 650.267 227.544 650.164C227.544 650.136 227.545 650.108 227.545 650.08C227.546 650.051 227.546 650.022 227.547 649.993C227.548 649.961 227.55 649.848 227.55 649.813C227.551 649.782 227.551 649.751 227.552 649.72C227.553 649.689 227.553 649.657 227.554 649.625C227.554 649.593 227.555 649.561 227.556 649.528C227.556 649.495 227.557 649.462 227.557 649.428C227.558 649.395 227.559 649.361 227.559 649.327C227.56 649.293 227.561 649.258 227.561 649.223C227.562 649.188 227.563 649.153 227.563 649.117C227.564 649.081 227.565 649.045 227.565 649.009C227.566 648.972 227.567 648.935 227.567 648.898C227.568 648.861 227.569 648.823 227.569 648.785C227.57 648.747 227.571 648.709 227.572 648.67C227.572 648.632 227.573 648.592 227.574 648.553C227.575 648.473 227.577 648.394 227.578 648.311C227.579 648.269 227.58 648.228 227.581 648.186C227.581 648.144 227.582 648.102 227.583 648.059C227.584 648.016 227.585 647.973 227.585 647.929C227.586 647.885 227.587 647.841 227.588 647.797C227.589 647.753 227.59 647.708 227.59 647.662C227.591 647.617 227.592 647.571 227.593 647.525C227.594 647.479 227.595 647.432 227.596 647.385C227.596 647.338 227.597 647.291 227.598 647.243C227.599 647.195 227.6 647.147 227.601 647.098C227.602 647.049 227.603 647 227.604 646.951C227.605 646.901 227.606 646.851 227.607 646.8C227.607 646.75 227.608 646.699 227.609 646.648C227.61 646.596 227.611 646.544 227.612 646.492C227.613 646.44 227.614 646.387 227.615 646.334C227.616 646.28 227.617 646.227 227.618 646.172C227.619 646.118 227.62 646.064 227.621 646.009C227.624 645.868 227.625 645.817 227.628 645.672C227.629 645.615 227.63 645.558 227.631 645.5C227.632 645.442 227.633 645.384 227.634 645.325C227.635 645.266 227.636 645.207 227.637 645.147C227.639 645.087 227.64 645.026 227.641 644.966C227.642 644.905 227.643 644.844 227.644 644.782C227.645 644.72 227.647 644.658 227.648 644.595C227.649 644.532 227.65 644.469 227.651 644.405C227.652 644.341 227.654 644.277 227.655 644.212C227.656 644.147 227.657 644.082 227.659 644.016C227.66 643.95 227.661 643.884 227.662 643.817C227.663 643.75 227.665 643.682 227.666 643.615C227.667 643.547 227.669 643.478 227.67 643.409C227.671 643.34 227.672 643.271 227.674 643.201C227.675 643.131 227.676 643.06 227.678 642.989C227.679 642.918 227.68 642.847 227.682 642.775C227.683 642.703 227.684 642.63 227.686 642.557C227.691 642.256 227.697 641.971 227.703 641.653C227.704 641.575 227.706 641.497 227.707 641.418C227.708 641.34 227.71 641.26 227.711 641.181C227.713 641.101 227.714 641.02 227.716 640.94C227.717 640.859 227.719 640.777 227.721 640.695C227.724 640.516 227.726 640.379 227.73 640.196C227.731 640.112 227.733 640.027 227.735 639.941C227.736 639.856 227.738 639.77 227.739 639.683C227.741 639.596 227.743 639.509 227.744 639.421C227.746 639.333 227.748 639.245 227.749 639.156C227.751 639.067 227.753 638.977 227.754 638.887C227.756 638.797 227.758 638.706 227.759 638.615C227.761 638.523 227.763 638.431 227.765 638.339C227.766 638.246 227.768 638.153 227.77 638.059C227.772 637.965 227.773 637.871 227.775 637.776C227.777 637.681 227.779 637.585 227.78 637.489C227.782 637.392 227.784 637.295 227.786 637.198C227.788 637.1 227.789 637.002 227.791 636.903C227.793 636.805 227.795 636.705 227.797 636.605C227.799 636.505 227.801 636.405 227.803 636.303C227.804 636.202 227.806 636.1 227.808 635.997C227.81 635.895 227.812 635.792 227.814 635.688C227.816 635.584 227.818 635.48 227.82 635.374C227.822 635.269 227.824 635.164 227.826 635.057C227.828 634.951 227.83 634.844 227.832 634.736C227.834 634.628 227.836 634.52 227.838 634.411C227.84 634.302 227.842 634.192 227.844 634.082C227.846 633.971 227.848 633.86 227.85 633.749C227.852 633.637 227.854 633.525 227.857 633.412C227.859 633.299 227.861 633.185 227.863 633.071C227.865 632.956 227.867 632.841 227.869 632.726C227.872 632.61 227.874 632.494 227.876 632.377C227.878 632.26 227.88 632.142 227.882 632.023C227.885 631.905 227.887 631.786 227.889 631.666C227.891 631.546 227.894 631.426 227.896 631.305C227.898 631.183 227.9 631.062 227.903 630.939C227.907 630.721 227.912 630.419 227.917 630.195C227.919 630.07 227.921 629.944 227.924 629.817C227.926 629.69 227.928 629.563 227.931 629.435C227.933 629.306 227.936 629.178 227.938 629.048C227.94 628.918 227.943 628.788 227.945 628.657C227.948 628.526 227.95 628.394 227.953 628.262C227.955 628.129 227.958 627.996 227.96 627.862C227.966 627.566 227.97 627.351 227.975 627.049C227.978 626.913 227.98 626.775 227.983 626.637C227.986 626.498 227.988 626.359 227.991 626.219C227.996 625.938 228.001 625.659 228.007 625.371C228.009 625.228 228.012 625.085 228.015 624.94C228.017 624.796 228.02 624.651 228.023 624.505C228.026 624.359 228.028 624.213 228.031 624.065C228.034 623.918 228.037 623.77 228.039 623.621C228.042 623.472 228.045 623.322 228.048 623.172C228.051 623.021 228.053 622.87 228.056 622.718C228.059 622.566 228.062 622.413 228.065 622.26C228.068 622.106 228.071 621.952 228.073 621.797C228.076 621.642 228.079 621.486 228.082 621.329C228.085 621.173 228.088 621.015 228.091 620.857C228.094 620.699 228.097 620.539 228.1 620.38C228.103 620.22 228.106 620.059 228.109 619.898C228.112 619.736 228.115 619.574 228.118 619.411C228.121 619.248 228.124 619.084 228.127 618.919C228.13 618.755 228.133 618.589 228.136 618.423C228.14 618.257 228.143 618.09 228.146 617.922C228.149 617.754 228.152 617.585 228.155 617.416C228.158 617.246 228.162 617.076 228.165 616.905C228.168 616.733 228.171 616.561 228.174 616.389C228.178 616.216 228.181 616.042 228.184 615.868C228.187 615.693 228.191 615.518 228.194 615.342C228.197 615.165 228.201 614.988 228.204 614.811C228.207 614.633 228.211 614.454 228.214 614.275C228.217 614.095 228.221 613.915 228.224 613.734C228.227 613.552 228.231 613.37 228.234 613.188C228.238 613.005 228.241 612.821 228.245 612.636C228.248 612.452 228.251 612.266 228.255 612.08C228.258 611.894 228.262 611.706 228.265 611.518C228.269 611.33 228.272 611.141 228.276 610.952C228.28 610.762 228.283 610.571 228.287 610.38C228.29 610.188 228.294 609.996 228.297 609.803C228.301 609.609 228.305 609.415 228.308 609.22C228.312 609.025 228.316 608.829 228.319 608.633C228.323 608.436 228.327 608.238 228.33 608.04C228.338 607.655 228.345 607.23 228.353 606.838C228.357 606.636 228.36 606.433 228.364 606.229C228.368 606.025 228.372 605.82 228.376 605.615C228.379 605.409 228.383 605.202 228.387 604.995C228.391 604.788 228.395 604.579 228.399 604.37C228.403 604.16 228.407 603.95 228.411 603.739C228.415 603.528 228.419 603.316 228.423 603.103C228.427 602.89 228.431 602.676 228.435 602.461C228.439 602.247 228.443 602.031 228.447 601.814C228.451 601.598 228.455 601.38 228.459 601.162C228.463 600.943 228.467 600.724 228.471 600.503C228.475 600.283 228.479 600.062 228.483 599.839C228.488 599.617 228.492 599.394 228.496 599.17C228.5 598.946 228.504 598.721 228.509 598.495C228.513 598.269 228.517 598.042 228.521 597.814C228.526 597.586 228.53 597.357 228.534 597.127C228.538 596.897 228.543 596.667 228.547 596.435C228.551 596.203 228.556 595.971 228.56 595.737C228.564 595.503 228.569 595.269 228.573 595.033C228.578 594.798 228.582 594.561 228.586 594.324C228.591 594.086 228.595 593.848 228.6 593.608C228.604 593.369 228.609 593.128 228.613 592.887C228.618 592.646 228.622 592.403 228.627 592.16C228.631 591.917 228.636 591.672 228.641 591.427C228.645 591.182 228.65 590.935 228.654 590.688C228.659 590.441 228.664 590.192 228.668 589.943C228.673 589.694 228.678 589.444 228.682 589.192C228.687 588.941 228.692 588.689 228.696 588.436C228.701 588.182 228.706 587.928 228.711 587.673C228.715 587.418 228.72 587.161 228.725 586.904C228.73 586.647 228.735 586.388 228.74 586.129C228.744 585.87 228.749 585.61 228.754 585.348C228.759 585.087 228.764 584.825 228.769 584.561C228.774 584.298 228.779 584.033 228.784 583.768C228.789 583.503 228.794 583.236 228.799 582.969C228.804 582.701 228.809 582.433 228.814 582.163C228.819 581.894 228.824 581.623 228.829 581.352C228.834 581.08 228.839 580.807 228.844 580.534C228.849 580.26 228.854 579.985 228.859 579.71C228.865 579.434 228.87 579.157 228.875 578.879C228.88 578.601 228.885 578.322 228.891 578.042C228.896 577.762 228.901 577.481 228.906 577.199C228.912 576.917 228.917 576.634 228.922 576.35C228.927 576.066 228.933 575.781 228.938 575.494C228.943 575.208 228.949 574.921 228.954 574.632C228.96 574.344 228.965 574.054 228.97 573.764C228.976 573.473 228.981 573.182 228.987 572.889C228.992 572.596 228.998 572.302 229.003 572.007C229.009 571.713 229.014 571.417 229.02 571.12C229.025 570.822 229.031 570.524 229.036 570.225C229.042 569.926 229.048 569.626 229.053 569.324C229.059 569.023 229.065 568.72 229.07 568.417C229.076 568.113 229.082 567.809 229.087 567.503C229.093 567.197 229.099 566.89 229.105 566.582C229.11 566.274 229.116 565.965 229.122 565.655C229.128 565.345 229.133 565.033 229.139 564.721C229.145 564.408 229.151 564.095 229.157 563.78C229.163 563.466 229.169 563.15 229.175 562.833C229.18 562.516 229.186 562.198 229.192 561.879C229.198 561.56 229.204 561.24 229.21 560.918C229.216 560.597 229.222 560.274 229.228 559.951C229.234 559.627 229.24 559.302 229.247 558.977C229.253 558.651 229.259 558.324 229.265 557.995C229.271 557.667 229.277 557.338 229.283 557.007C229.289 556.677 229.296 556.345 229.302 556.013C229.308 555.68 229.314 555.346 229.321 555.011C229.327 554.676 229.333 554.34 229.339 554.002C229.346 553.665 229.352 553.327 229.358 552.987C229.365 552.647 229.371 552.306 229.378 551.964C229.384 551.622 229.39 551.279 229.397 550.935C229.403 550.591 229.41 550.245 229.416 549.898C229.423 549.552 229.429 549.204 229.436 548.855C229.442 548.506 229.449 548.156 229.455 547.804C229.462 547.453 229.468 547.1 229.475 546.747C229.482 546.393 229.488 546.038 229.495 545.682C229.501 545.326 229.508 544.969 229.515 544.61C229.522 544.252 229.528 543.892 229.535 543.531C229.542 543.17 229.548 542.808 229.555 542.445C229.562 542.082 229.569 541.717 229.576 541.352C229.583 540.986 229.589 540.619 229.596 540.251C229.603 539.883 229.61 539.514 229.617 539.143C229.624 538.773 229.631 538.401 229.638 538.028C229.645 537.655 229.652 537.281 229.659 536.906C229.666 536.531 229.673 536.154 229.68 535.776C229.687 535.398 229.694 535.02 229.701 534.639C229.708 534.259 229.715 533.878 229.722 533.495C229.73 533.112 229.737 532.728 229.744 532.343C229.759 531.536 229.772 530.834 229.787 530.017C229.795 529.627 229.802 529.236 229.809 528.843C229.817 528.451 229.824 528.057 229.831 527.662C229.839 527.267 229.846 526.87 229.854 526.473C229.861 526.075 229.868 525.676 229.876 525.276C229.883 524.876 229.891 524.475 229.898 524.072C229.906 523.67 229.913 523.266 229.921 522.861C229.929 522.455 229.936 522.049 229.944 521.641C229.951 521.234 229.959 520.825 229.967 520.414C229.974 520.004 229.982 519.593 229.99 519.18C229.997 518.767 230.005 518.353 230.013 517.938C230.021 517.522 230.028 517.106 230.036 516.688C230.044 516.27 230.052 515.851 230.06 515.43C230.068 515.01 230.075 514.588 230.083 514.165C230.091 513.742 230.099 513.317 230.107 512.892C230.115 512.466 230.123 512.039 230.131 511.611C230.139 511.183 230.147 510.753 230.155 510.322C230.163 509.891 230.171 509.459 230.179 509.026C230.187 508.592 230.196 508.157 230.204 507.721C230.212 507.285 230.22 506.848 230.228 506.409C230.236 505.97 230.245 505.53 230.253 505.089C230.27 504.19 230.286 503.334 230.303 502.425C230.311 501.978 230.319 501.53 230.328 501.081C230.336 500.631 230.345 500.181 230.353 499.729C230.361 499.277 230.37 498.823 230.378 498.369C230.387 497.914 230.395 497.458 230.404 497C230.412 496.543 230.421 496.084 230.43 495.624C230.438 495.164 230.447 494.703 230.455 494.24C230.464 493.777 230.473 493.313 230.481 492.848C230.49 492.382 230.499 491.915 230.508 491.447C230.516 490.979 230.525 490.509 230.534 490.038C230.543 489.567 230.552 489.095 230.56 488.622C230.569 488.148 230.578 487.673 230.587 487.196C230.596 486.72 230.605 486.242 230.614 485.763C230.623 485.284 230.632 484.803 230.641 484.321C230.65 483.84 230.659 483.356 230.668 482.872C230.677 482.387 230.686 481.901 230.695 481.413C230.704 480.926 230.713 480.437 230.722 479.947C230.732 479.457 230.741 478.965 230.75 478.472C230.759 477.979 230.768 477.485 230.778 476.989C230.787 476.493 230.796 475.996 230.805 475.497C230.815 474.998 230.824 474.498 230.833 473.997C230.843 473.496 230.852 472.993 230.862 472.488C230.871 471.984 230.881 471.478 230.89 470.971C230.899 470.464 230.909 469.956 230.918 469.446C230.928 468.936 230.938 468.425 230.947 467.912C230.957 467.399 230.966 466.885 230.976 466.369C230.986 465.854 230.995 465.337 231.005 464.818C231.015 464.3 231.024 463.78 231.034 463.258C231.044 462.737 231.054 462.214 231.063 461.69C231.073 461.166 231.083 460.64 231.093 460.113C231.103 459.586 231.112 459.057 231.122 458.527C231.132 457.997 231.142 457.466 231.152 456.933C231.162 456.4 231.172 455.866 231.182 455.33C231.192 454.794 231.202 454.257 231.212 453.718C231.222 453.179 231.232 452.639 231.242 452.097C231.253 451.556 231.263 451.013 231.273 450.468C231.283 449.923 231.293 449.377 231.303 448.83C231.314 448.282 231.324 447.733 231.334 447.183C231.344 446.632 231.355 446.08 231.365 445.527C231.375 444.974 231.386 444.419 231.396 443.862C231.407 443.306 231.417 442.748 231.427 442.189C231.438 441.629 231.448 441.068 231.459 440.506C231.469 439.944 231.48 439.38 231.49 438.815C231.501 438.249 231.512 437.682 231.522 437.114C231.533 436.546 231.543 435.976 231.554 435.405C231.565 434.833 231.576 434.26 231.586 433.686C231.597 433.112 231.608 432.536 231.619 431.959C231.629 431.381 231.64 430.802 231.651 430.222C231.662 429.642 231.673 429.06 231.684 428.476C231.694 427.893 231.705 427.308 231.716 426.721C231.727 426.135 231.738 425.547 231.749 424.958C231.76 424.368 231.771 423.777 231.782 423.184C231.793 422.592 231.805 421.998 231.816 421.402C231.827 420.806 231.838 420.209 231.849 419.611C231.86 419.012 231.871 418.412 231.883 417.81C231.894 417.208 231.905 416.605 231.917 416C231.928 415.395 231.939 414.788 231.95 414.181C231.962 413.573 231.973 412.963 231.985 412.352C231.996 411.741 232.007 411.128 232.019 410.514C232.03 409.9 232.042 409.284 232.053 408.667C232.065 408.049 232.077 407.43 232.088 406.81C232.1 406.19 232.111 405.568 232.123 404.944C232.135 404.32 232.146 403.695 232.158 403.068C232.17 402.442 232.181 401.813 232.193 401.184C232.205 400.554 232.217 399.922 232.229 399.289C232.24 398.656 232.252 398.021 232.264 397.385C232.276 396.749 232.288 396.111 232.3 395.472C232.312 394.832 232.324 394.191 232.336 393.549C232.348 392.906 232.36 392.262 232.372 391.616C232.384 390.971 232.396 390.323 232.408 389.674C232.42 389.025 232.432 388.375 232.445 387.722C232.457 387.07 232.469 386.416 232.481 385.761C232.493 385.106 232.506 384.449 232.518 383.79C232.53 383.131 232.543 382.471 232.555 381.809C232.567 381.147 232.58 380.484 232.592 379.819C232.605 379.154 232.617 378.487 232.63 377.819C232.642 377.15 232.655 376.48 232.667 375.809C232.68 375.137 232.692 374.464 232.705 373.789C232.717 373.114 232.73 372.438 232.743 371.76C232.755 371.081 232.768 370.402 232.781 369.72C232.793 369.039 232.806 368.356 232.819 367.671C232.832 366.986 232.845 366.3 232.857 365.612C232.87 364.924 232.883 364.234 232.896 363.543C232.909 362.852 232.922 362.159 232.935 361.464C232.948 360.77 232.961 360.073 232.974 359.375C232.987 358.677 233 357.978 233.013 357.276C233.026 356.575 233.039 355.872 233.053 355.168C233.066 354.463 233.079 353.757 233.092 353.049C233.105 352.341 233.119 351.631 233.132 350.92C233.145 350.209 233.158 349.496 233.172 348.781C233.185 348.066 233.198 347.35 233.212 346.632C233.225 345.914 233.239 345.194 233.252 344.473C233.266 343.752 233.279 343.028 233.293 342.304C233.306 341.579 233.32 340.852 233.333 340.124C233.347 339.396 233.361 338.666 233.374 337.935C233.388 337.203 233.402 336.47 233.415 335.735C233.429 335 233.443 334.263 233.457 333.525C233.47 332.786 233.484 332.046 233.498 331.305C233.512 330.563 233.526 329.819 233.54 329.074C233.554 328.329 233.568 327.582 233.582 326.833C233.596 326.084 233.61 325.334 233.624 324.582C233.638 323.83 233.652 323.076 233.666 322.32C233.68 321.565 233.694 320.807 233.708 320.048C233.723 319.289 233.737 318.529 233.751 317.766C233.765 317.003 233.779 316.239 233.794 315.473C233.808 314.707 233.822 313.94 233.837 313.17C233.851 312.401 233.866 311.629 233.88 310.856C233.894 310.083 233.909 309.309 233.923 308.532C233.938 307.756 233.952 306.978 233.967 306.198C233.996 304.664 234.026 303.044 234.055 301.497C234.069 300.71 234.084 299.921 234.099 299.13C234.114 298.34 234.129 297.547 234.143 296.753C234.158 295.959 234.173 295.163 234.188 294.366C234.203 293.568 234.218 292.768 234.233 291.967C234.248 291.166 234.263 290.363 234.278 289.558C234.293 288.754 234.308 287.947 234.323 287.139C234.338 286.33 234.353 285.52 234.368 284.708C234.383 283.896 234.399 283.083 234.414 282.267C234.429 281.452 234.444 280.634 234.46 279.815C234.475 278.996 234.49 278.175 234.506 277.352C234.521 276.53 234.536 275.705 234.552 274.879C234.567 274.053 234.583 273.224 234.598 272.395C234.614 271.565 234.629 270.733 234.645 269.899C234.66 269.066 234.676 268.23 234.692 267.393C234.707 266.556 234.723 265.717 234.739 264.876C234.754 264.035 234.77 263.192 234.786 262.348C234.802 261.503 234.817 260.657 234.833 259.809C234.849 258.961 234.865 258.111 234.881 257.259C234.897 256.407 234.913 255.553 234.929 254.698C234.945 253.842 234.961 252.985 234.977 252.126C234.993 251.267 235.009 250.406 235.025 249.543C235.041 248.68 235.057 247.815 235.073 246.949C235.09 246.082 235.106 245.214 235.122 244.343C235.138 243.473 235.155 242.601 235.171 241.727C235.187 240.853 235.204 239.977 235.22 239.099C235.236 238.221 235.253 237.342 235.269 236.46C235.286 235.579 235.302 234.696 235.319 233.81C235.335 232.925 235.352 232.038 235.368 231.149C235.385 230.26 235.402 229.369 235.418 228.477C235.435 227.584 235.452 226.689 235.468 225.793C235.485 224.897 235.502 223.998 235.519 223.098C235.536 222.198 235.552 221.296 235.569 220.392C235.586 219.488 235.603 218.582 235.62 217.674C235.637 216.766 235.654 215.856 235.671 214.945C235.688 214.033 235.705 213.12 235.722 212.204C235.739 211.289 235.756 210.372 235.774 209.452C235.791 208.533 235.808 207.612 235.825 206.689C235.842 205.766 235.86 204.841 235.877 203.914C235.894 202.987 235.912 202.059 235.929 201.128C235.946 200.197 235.964 199.265 235.981 198.33C235.999 197.396 236.016 196.459 236.034 195.521C236.051 194.582 236.069 193.642 236.086 192.7C236.104 191.758 236.122 190.814 236.139 189.867C236.157 188.921 236.175 187.973 236.192 187.023C236.21 186.073 236.228 185.121 236.246 184.168C236.264 183.214 236.281 182.258 236.299 181.3C236.317 180.342 236.335 179.383 236.353 178.421C236.371 177.46 236.389 176.496 236.407 175.53C236.425 174.565 236.443 173.597 236.461 172.628C236.479 171.658 236.498 170.687 236.516 169.714C236.534 168.74 236.552 167.765 236.57 166.788C236.589 165.81 236.607 164.831 236.625 163.85C236.644 162.869 236.662 161.885 236.68 160.9C236.699 159.915 236.717 158.928 236.736 157.939C236.754 156.949 236.773 155.958 236.791 154.965C236.81 153.972 236.828 152.977 236.847 151.98C236.865 150.983 236.884 149.984 236.903 148.983C236.922 147.982 236.94 146.979 236.959 145.974C236.978 144.969 236.997 143.962 237.015 142.953C237.034 141.944 237.053 140.933 237.072 139.92C237.091 138.907 237.11 137.892 237.129 136.874C237.148 135.857 237.167 134.838 237.186 133.817C237.205 132.796 237.224 131.773 237.243 130.748C237.262 129.723 237.282 128.696 237.301 127.667C237.32 126.638 237.339 125.607 237.359 124.574C237.378 123.54 237.397 122.505 237.417 121.468L236.417 121.449C236.397 122.487 236.378 123.522 236.359 124.555C236.34 125.588 236.32 126.619 236.301 127.648C236.282 128.677 236.263 129.704 236.244 130.73C236.224 131.755 236.205 132.778 236.186 133.799C236.167 134.82 236.148 135.839 236.129 136.856C236.11 137.873 236.091 138.888 236.072 139.901C236.053 140.914 236.034 141.925 236.016 142.934C235.997 143.943 235.978 144.95 235.959 145.955C235.94 146.96 235.922 147.963 235.903 148.964C235.884 149.965 235.866 150.964 235.847 151.961C235.828 152.958 235.81 153.953 235.791 154.947C235.773 155.94 235.754 156.931 235.736 157.92C235.717 158.909 235.699 159.896 235.68 160.881C235.662 161.867 235.644 162.85 235.625 163.831C235.607 164.812 235.589 165.792 235.571 166.769C235.552 167.746 235.534 168.722 235.516 169.695C235.498 170.668 235.48 171.64 235.461 172.609C235.443 173.579 235.425 174.546 235.407 175.512C235.389 176.477 235.371 177.441 235.353 178.402C235.335 179.364 235.317 180.324 235.3 181.282C235.282 182.239 235.264 183.195 235.246 184.149C235.228 185.103 235.21 186.055 235.193 187.005C235.175 187.955 235.157 188.903 235.14 189.849C235.122 190.795 235.104 191.739 235.087 192.681C235.069 193.623 235.051 194.564 235.034 195.502C235.016 196.441 234.999 197.377 234.981 198.312C234.964 199.246 234.947 200.179 234.929 201.109C234.912 202.04 234.895 202.969 234.877 203.896C234.86 204.822 234.843 205.747 234.825 206.67C234.808 207.593 234.791 208.515 234.774 209.434C234.757 210.353 234.739 211.27 234.722 212.186C234.705 213.101 234.688 214.015 234.671 214.926C234.654 215.838 234.637 216.747 234.62 217.655C234.603 218.563 234.586 219.469 234.57 220.373C234.553 221.277 234.536 222.179 234.519 223.079C234.502 223.98 234.485 224.878 234.469 225.774C234.452 226.671 234.435 227.565 234.419 228.458C234.402 229.351 234.385 230.242 234.369 231.131C234.352 232.02 234.335 232.907 234.319 233.792C234.302 234.677 234.286 235.56 234.269 236.442C234.253 237.323 234.237 238.203 234.22 239.081C234.204 239.958 234.187 240.834 234.171 241.708C234.155 242.582 234.138 243.454 234.122 244.325C234.106 245.195 234.09 246.063 234.074 246.93C234.057 247.796 234.041 248.661 234.025 249.524C234.009 250.387 233.993 251.248 233.977 252.107C233.961 252.966 233.945 253.824 233.929 254.679C233.913 255.535 233.897 256.388 233.881 257.24C233.865 258.092 233.849 258.942 233.833 259.79C233.818 260.638 233.802 261.485 233.786 262.329C233.77 263.174 233.755 264.016 233.739 264.857C233.723 265.698 233.707 266.537 233.692 267.374C233.676 268.212 233.661 269.047 233.645 269.881C233.629 270.714 233.614 271.546 233.598 272.376C233.583 273.206 233.567 274.034 233.552 274.86C233.537 275.687 233.521 276.511 233.506 277.334C233.49 278.157 233.475 278.977 233.46 279.797C233.445 280.616 233.429 281.433 233.414 282.248C233.399 283.064 233.384 283.878 233.368 284.69C233.353 285.502 233.338 286.312 233.323 287.12C233.308 287.928 233.293 288.735 233.278 289.54C233.263 290.344 233.248 291.147 233.233 291.949C233.218 292.75 233.203 293.549 233.188 294.347C233.173 295.145 233.158 295.94 233.144 296.735C233.129 297.529 233.114 298.321 233.099 299.111C233.084 299.902 233.07 300.691 233.055 301.478C233.04 302.265 233.026 303.05 233.011 303.834C232.996 304.617 232.982 305.399 232.967 306.179C232.953 306.959 232.938 307.737 232.924 308.514C232.909 309.29 232.895 310.065 232.88 310.838C232.866 311.611 232.851 312.382 232.837 313.151C232.823 313.921 232.808 314.689 232.794 315.455C232.78 316.221 232.765 316.985 232.751 317.747C232.737 318.51 232.723 319.271 232.709 320.03C232.694 320.789 232.68 321.546 232.666 322.302C232.652 323.057 232.638 323.811 232.624 324.563C232.61 325.315 232.596 326.066 232.582 326.814C232.568 327.563 232.554 328.31 232.54 329.055C232.526 329.8 232.512 330.544 232.498 331.286C232.484 332.028 232.471 332.768 232.457 333.506C232.443 334.245 232.429 334.981 232.416 335.716C232.402 336.451 232.388 337.184 232.374 337.916C232.361 338.648 232.347 339.377 232.334 340.106C232.32 340.834 232.306 341.56 232.293 342.285C232.279 343.01 232.266 343.733 232.252 344.454C232.239 345.176 232.225 345.895 232.212 346.613C232.199 347.331 232.185 348.048 232.172 348.762C232.159 349.477 232.145 350.19 232.132 350.901C232.119 351.613 232.105 352.322 232.092 353.03C232.079 353.738 232.066 354.444 232.053 355.149C232.04 355.854 232.026 356.557 232.013 357.258C232 357.959 231.987 358.659 231.974 359.357C231.961 360.055 231.948 360.751 231.935 361.445C231.922 362.14 231.909 362.833 231.896 363.524C231.883 364.216 231.87 364.905 231.858 365.593C231.845 366.281 231.832 366.968 231.819 367.652C231.806 368.337 231.794 369.02 231.781 369.702C231.768 370.383 231.756 371.063 231.743 371.741C231.73 372.419 231.718 373.096 231.705 373.77C231.692 374.445 231.68 375.118 231.667 375.79C231.655 376.462 231.642 377.132 231.63 377.8C231.617 378.468 231.605 379.135 231.592 379.8C231.58 380.465 231.568 381.129 231.555 381.791C231.543 382.452 231.53 383.113 231.518 383.771C231.506 384.43 231.494 385.087 231.481 385.742C231.469 386.398 231.457 387.052 231.445 387.704C231.433 388.356 231.42 389.007 231.408 389.656C231.396 390.304 231.384 390.952 231.372 391.598C231.36 392.243 231.348 392.888 231.336 393.53C231.324 394.173 231.312 394.814 231.3 395.453C231.288 396.093 231.276 396.73 231.264 397.367C231.252 398.003 231.241 398.637 231.229 399.27C231.217 399.904 231.205 400.535 231.193 401.165C231.182 401.795 231.17 402.423 231.158 403.05C231.146 403.677 231.135 404.302 231.123 404.925C231.112 405.549 231.1 406.171 231.088 406.791C231.077 407.412 231.065 408.031 231.054 408.648C231.042 409.265 231.031 409.881 231.019 410.495C231.008 411.109 230.996 411.722 230.985 412.333C230.973 412.944 230.962 413.554 230.951 414.162C230.939 414.77 230.928 415.376 230.917 415.981C230.905 416.586 230.894 417.189 230.883 417.791C230.872 418.393 230.86 418.993 230.849 419.592C230.838 420.191 230.827 420.788 230.816 421.383C230.805 421.979 230.794 422.573 230.783 423.166C230.771 423.758 230.76 424.349 230.749 424.939C230.738 425.528 230.727 426.116 230.716 426.703C230.706 427.289 230.695 427.874 230.684 428.458C230.673 429.041 230.662 429.623 230.651 430.203C230.64 430.784 230.629 431.363 230.619 431.94C230.608 432.517 230.597 433.093 230.586 433.667C230.576 434.242 230.565 434.815 230.554 435.386C230.544 435.957 230.533 436.527 230.522 437.095C230.512 437.664 230.501 438.231 230.491 438.796C230.48 439.361 230.47 439.925 230.459 440.487C230.449 441.05 230.438 441.611 230.428 442.17C230.417 442.729 230.407 443.287 230.396 443.844C230.386 444.4 230.376 444.955 230.365 445.508C230.355 446.062 230.345 446.614 230.334 447.164C230.324 447.715 230.314 448.264 230.304 448.811C230.293 449.359 230.283 449.905 230.273 450.449C230.263 450.994 230.253 451.537 230.243 452.079C230.232 452.62 230.222 453.161 230.212 453.699C230.202 454.238 230.192 454.775 230.182 455.311C230.172 455.847 230.162 456.381 230.152 456.914C230.142 457.447 230.132 457.979 230.123 458.509C230.113 459.039 230.103 459.567 230.093 460.094C230.083 460.621 230.073 461.147 230.063 461.671C230.054 462.195 230.044 462.718 230.034 463.24C230.024 463.761 230.015 464.281 230.005 464.799C229.995 465.318 229.986 465.835 229.976 466.351C229.966 466.866 229.957 467.38 229.947 467.893C229.938 468.406 229.928 468.917 229.919 469.427C229.909 469.937 229.9 470.446 229.89 470.953C229.881 471.46 229.871 471.965 229.862 472.47C229.852 472.974 229.843 473.477 229.834 473.978C229.824 474.48 229.815 474.98 229.806 475.478C229.796 475.977 229.787 476.474 229.778 476.97C229.769 477.466 229.759 477.96 229.75 478.453C229.741 478.946 229.732 479.438 229.723 479.928C229.713 480.418 229.704 480.907 229.695 481.395C229.686 481.882 229.677 482.368 229.668 482.853C229.659 483.338 229.65 483.821 229.641 484.303C229.632 484.785 229.623 485.265 229.614 485.744C229.605 486.224 229.596 486.701 229.587 487.178C229.578 487.654 229.569 488.129 229.561 488.603C229.552 489.077 229.543 489.549 229.534 490.02C229.525 490.491 229.517 490.96 229.508 491.428C229.499 491.897 229.49 492.363 229.482 492.829C229.473 493.294 229.464 493.759 229.456 494.221C229.447 494.684 229.438 495.146 229.43 495.606C229.421 496.066 229.413 496.524 229.404 496.982C229.396 497.439 229.387 497.895 229.379 498.35C229.37 498.805 229.362 499.258 229.353 499.71C229.345 500.162 229.336 500.613 229.328 501.062C229.319 501.511 229.311 501.959 229.303 502.406C229.294 502.853 229.286 503.298 229.278 503.742C229.27 504.186 229.261 504.629 229.253 505.07C229.245 505.512 229.237 505.952 229.228 506.39C229.22 506.829 229.212 507.267 229.204 507.703C229.196 508.139 229.188 508.574 229.18 509.007C229.171 509.441 229.163 509.873 229.155 510.304C229.147 510.734 229.139 511.164 229.131 511.592C229.123 512.021 229.115 512.447 229.107 512.873C229.099 513.299 229.091 513.723 229.084 514.146C229.076 514.569 229.068 514.991 229.06 515.412C229.052 515.832 229.044 516.251 229.036 516.669C229.029 517.087 229.021 517.504 229.013 517.919C229.005 518.334 228.998 518.748 228.99 519.161C228.982 519.574 228.975 519.986 228.967 520.396C228.959 520.806 228.952 521.215 228.944 521.623C228.936 522.03 228.929 522.437 228.921 522.842C228.914 523.247 228.906 523.651 228.899 524.054C228.891 524.456 228.884 524.858 228.876 525.258C228.869 525.658 228.861 526.057 228.854 526.454C228.846 526.852 228.839 527.248 228.832 527.643C228.824 528.038 228.817 528.432 228.809 528.825C228.802 529.217 228.795 529.609 228.788 529.999C228.772 530.815 228.759 531.518 228.744 532.325C228.737 532.71 228.73 533.094 228.723 533.476C228.715 533.859 228.708 534.24 228.701 534.621C228.694 535.001 228.687 535.38 228.68 535.758C228.673 536.135 228.666 536.512 228.659 536.887C228.652 537.263 228.645 537.637 228.638 538.01C228.631 538.383 228.624 538.754 228.617 539.125C228.61 539.495 228.603 539.864 228.596 540.233C228.59 540.601 228.583 540.967 228.576 541.333C228.569 541.699 228.562 542.063 228.555 542.426C228.549 542.79 228.542 543.152 228.535 543.513C228.528 543.873 228.522 544.233 228.515 544.592C228.508 544.95 228.502 545.307 228.495 545.663C228.488 546.019 228.482 546.374 228.475 546.728C228.469 547.082 228.462 547.434 228.455 547.786C228.449 548.137 228.442 548.487 228.436 548.836C228.429 549.185 228.423 549.533 228.416 549.88C228.41 550.226 228.403 550.572 228.397 550.916C228.39 551.261 228.384 551.604 228.378 551.946C228.371 552.288 228.365 552.629 228.359 552.968C228.352 553.308 228.346 553.646 228.34 553.984C228.333 554.321 228.327 554.657 228.321 554.992C228.315 555.327 228.308 555.661 228.302 555.994C228.296 556.327 228.29 556.658 228.284 556.989C228.277 557.319 228.271 557.649 228.265 557.977C228.259 558.305 228.253 558.632 228.247 558.958C228.241 559.284 228.235 559.608 228.229 559.932C228.222 560.256 228.216 560.578 228.21 560.9C228.204 561.221 228.198 561.541 228.193 561.86C228.187 562.18 228.181 562.497 228.175 562.814C228.169 563.131 228.163 563.447 228.157 563.762C228.151 564.076 228.145 564.39 228.139 564.702C228.134 565.015 228.128 565.326 228.122 565.636C228.116 565.946 228.11 566.255 228.105 566.563C228.099 566.871 228.093 567.178 228.088 567.484C228.082 567.79 228.076 568.095 228.07 568.398C228.065 568.702 228.059 569.004 228.053 569.306C228.031 570.506 228.009 571.704 227.987 572.87C227.981 573.163 227.976 573.454 227.971 573.745C227.965 574.036 227.96 574.325 227.954 574.614C227.949 574.902 227.944 575.189 227.938 575.476C227.933 575.762 227.928 576.047 227.922 576.331C227.917 576.616 227.912 576.899 227.906 577.181C227.901 577.463 227.896 577.744 227.891 578.024C227.885 578.304 227.88 578.583 227.875 578.86C227.87 579.138 227.865 579.415 227.86 579.691C227.854 579.967 227.849 580.241 227.844 580.515C227.839 580.789 227.834 581.061 227.829 581.333C227.824 581.604 227.819 581.875 227.814 582.145C227.809 582.414 227.804 582.683 227.799 582.95C227.794 583.218 227.789 583.484 227.784 583.749C227.779 584.015 227.774 584.279 227.769 584.543C227.764 584.806 227.759 585.068 227.754 585.33C227.749 585.591 227.745 585.851 227.74 586.111C227.735 586.37 227.73 586.628 227.725 586.885C227.72 587.143 227.716 587.399 227.711 587.654C227.706 587.909 227.701 588.164 227.697 588.417C227.692 588.67 227.687 588.922 227.682 589.174C227.678 589.425 227.673 589.675 227.668 589.924C227.664 590.174 227.659 590.422 227.655 590.669C227.65 590.917 227.645 591.163 227.641 591.408C227.636 591.654 227.632 591.898 227.627 592.141C227.623 592.385 227.618 592.627 227.613 592.868C227.609 593.11 227.604 593.35 227.6 593.59C227.596 593.829 227.591 594.067 227.587 594.305C227.582 594.542 227.578 594.779 227.573 595.014C227.569 595.25 227.565 595.485 227.56 595.718C227.556 595.952 227.552 596.185 227.547 596.416C227.543 596.648 227.539 596.879 227.534 597.109C227.53 597.338 227.526 597.567 227.521 597.795C227.517 598.023 227.513 598.25 227.509 598.476C227.505 598.702 227.5 598.927 227.496 599.151C227.492 599.375 227.488 599.598 227.484 599.821C227.48 600.043 227.475 600.264 227.471 600.485C227.467 600.705 227.463 600.924 227.459 601.143C227.455 601.361 227.451 601.579 227.447 601.796C227.443 602.012 227.439 602.228 227.435 602.443C227.431 602.658 227.427 602.871 227.423 603.084C227.419 603.297 227.415 603.509 227.411 603.72C227.407 603.932 227.403 604.142 227.399 604.351C227.395 604.56 227.391 604.769 227.387 604.976C227.384 605.184 227.38 605.39 227.376 605.596C227.372 605.802 227.368 606.007 227.364 606.21C227.361 606.414 227.357 606.617 227.353 606.819C227.349 607.021 227.345 607.223 227.342 607.423C227.338 607.623 227.334 607.823 227.331 608.021C227.327 608.22 227.323 608.417 227.319 608.614C227.316 608.811 227.312 609.007 227.308 609.202C227.305 609.397 227.301 609.591 227.298 609.784C227.294 609.977 227.29 610.17 227.287 610.361C227.283 610.553 227.28 610.743 227.276 610.933C227.273 611.123 227.269 611.312 227.266 611.5C227.262 611.688 227.259 611.875 227.255 612.061C227.252 612.248 227.248 612.433 227.245 612.618C227.241 612.802 227.238 612.986 227.234 613.169C227.231 613.352 227.228 613.534 227.224 613.715C227.221 613.896 227.217 614.077 227.214 614.256C227.211 614.436 227.207 614.614 227.204 614.792C227.201 614.97 227.197 615.147 227.194 615.323C227.191 615.499 227.188 615.674 227.184 615.849C227.181 616.023 227.178 616.197 227.175 616.37C227.171 616.543 227.168 616.715 227.165 616.886C227.162 617.057 227.159 617.227 227.155 617.397C227.152 617.566 227.149 617.735 227.146 617.903C227.143 618.071 227.14 618.238 227.137 618.404C227.134 618.571 227.13 618.736 227.127 618.901C227.124 619.065 227.121 619.229 227.118 619.392C227.115 619.555 227.112 619.718 227.109 619.879C227.106 620.04 227.103 620.201 227.1 620.361C227.097 620.521 227.094 620.68 227.091 620.838C227.088 620.996 227.085 621.154 227.082 621.311C227.079 621.467 227.077 621.623 227.074 621.778C227.071 621.933 227.068 622.088 227.065 622.241C227.062 622.395 227.059 622.548 227.056 622.7C227.054 622.852 227.051 623.003 227.048 623.153C227.045 623.304 227.042 623.453 227.04 623.602C227.037 623.751 227.034 623.899 227.031 624.047C227.029 624.194 227.026 624.341 227.023 624.487C227.02 624.632 227.018 624.777 227.015 624.922C227.012 625.066 227.01 625.21 227.007 625.353C227.004 625.495 227.002 625.637 226.999 625.779C226.996 625.92 226.994 626.061 226.991 626.201C226.988 626.34 226.986 626.48 226.983 626.618C226.981 626.756 226.978 626.894 226.976 627.031C226.973 627.168 226.97 627.304 226.968 627.439C226.965 627.575 226.963 627.709 226.96 627.843C226.958 627.977 226.955 628.11 226.953 628.243C226.95 628.375 226.948 628.507 226.946 628.638C226.943 628.769 226.941 628.9 226.938 629.029C226.936 629.159 226.933 629.288 226.931 629.416C226.929 629.544 226.926 629.672 226.924 629.798C226.921 629.925 226.919 630.051 226.917 630.177C226.912 630.455 226.908 630.647 226.903 630.92C226.901 631.043 226.898 631.165 226.896 631.286C226.894 631.407 226.892 631.528 226.889 631.647C226.887 631.767 226.885 631.886 226.883 632.005C226.88 632.123 226.878 632.241 226.876 632.358C226.874 632.475 226.872 632.591 226.87 632.707C226.867 632.823 226.865 632.938 226.863 633.052C226.861 633.166 226.859 633.28 226.857 633.393C226.855 633.506 226.853 633.618 226.85 633.73C226.848 633.842 226.846 633.953 226.844 634.063C226.842 634.173 226.84 634.283 226.838 634.392C226.836 634.501 226.834 634.61 226.832 634.717C226.83 634.825 226.828 634.932 226.826 635.038C226.824 635.145 226.822 635.251 226.82 635.356C226.818 635.461 226.816 635.565 226.814 635.669C226.812 635.773 226.81 635.876 226.808 635.979C226.807 636.081 226.805 636.183 226.803 636.285C226.772 637.937 226.746 639.332 226.721 640.676C226.719 640.758 226.718 640.84 226.716 640.921C226.715 641.002 226.713 641.082 226.712 641.162C226.71 641.242 226.709 641.321 226.707 641.4C226.706 641.478 226.704 641.556 226.703 641.634C226.697 641.952 226.692 642.238 226.686 642.538C226.685 642.611 226.683 642.684 226.682 642.756C226.681 642.828 226.679 642.9 226.678 642.971C226.677 643.042 226.675 643.112 226.674 643.182C226.673 643.252 226.671 643.322 226.67 643.391C226.669 643.46 226.667 643.528 226.666 643.596C226.665 643.664 226.664 643.731 226.662 643.798C226.661 643.865 226.66 643.931 226.659 643.997C226.657 644.063 226.656 644.128 226.655 644.193C226.654 644.258 226.653 644.322 226.651 644.386C226.65 644.45 226.649 644.513 226.648 644.576C226.647 644.639 226.646 644.701 226.644 644.763C226.643 644.825 226.642 644.886 226.641 644.947C226.64 645.008 226.639 645.068 226.638 645.128C226.636 645.188 226.635 645.247 226.634 645.306C226.633 645.365 226.632 645.423 226.631 645.481C226.63 645.539 226.629 645.597 226.628 645.654C226.62 646.071 226.611 646.573 226.604 646.932C226.603 646.982 226.602 647.031 226.601 647.08C226.6 647.128 226.599 647.177 226.598 647.224C226.598 647.272 226.597 647.32 226.596 647.367C226.595 647.414 226.594 647.46 226.593 647.507C226.592 647.553 226.591 647.598 226.591 647.644C226.59 647.689 226.589 647.734 226.588 647.778C226.587 647.823 226.586 647.867 226.586 647.91C226.585 647.954 226.584 647.997 226.583 648.04C226.582 648.083 226.582 648.125 226.581 648.167C226.58 648.209 226.579 648.251 226.578 648.292C226.577 648.375 226.575 648.454 226.574 648.534C226.573 648.574 226.573 648.613 226.572 648.652C226.571 648.69 226.57 648.729 226.57 648.767C226.569 648.805 226.568 648.842 226.568 648.88C226.567 648.917 226.566 648.954 226.565 648.99C226.565 649.027 226.564 649.063 226.563 649.098C226.563 649.134 226.562 649.169 226.561 649.204C226.561 649.239 226.56 649.274 226.56 649.308C226.559 649.342 226.558 649.376 226.558 649.41C226.557 649.443 226.556 649.476 226.556 649.509C226.555 649.542 226.555 649.574 226.554 649.606C226.552 649.709 226.552 649.694 226.55 649.794C226.549 649.85 226.548 649.921 226.547 649.974C226.547 650.003 226.546 650.032 226.545 650.061C226.545 650.089 226.544 650.118 226.544 650.146C226.542 650.265 226.54 650.356 226.538 650.465C226.537 650.531 226.536 650.549 226.535 650.613C226.535 650.637 226.534 650.661 226.534 650.684C226.533 650.708 226.533 650.731 226.533 650.754C226.53 650.863 226.53 650.914 226.528 651.014C226.527 651.034 226.527 651.055 226.527 651.075C226.526 651.094 226.526 651.114 226.525 651.134C226.524 651.193 226.524 651.189 226.523 651.247C226.523 651.265 226.523 651.283 226.522 651.301C226.522 651.318 226.522 651.336 226.521 651.353C226.521 651.37 226.521 651.387 226.52 651.404C226.52 651.421 226.52 651.437 226.519 651.453C226.518 651.511 226.519 651.492 226.518 651.548C226.517 651.585 226.517 651.601 226.516 651.636C226.516 651.65 226.516 651.664 226.515 651.678C226.515 651.692 226.515 651.705 226.515 651.719C226.514 651.729 226.513 651.788 226.513 651.796C226.513 651.808 226.513 651.82 226.512 651.832C226.512 651.844 226.512 651.856 226.512 651.868C226.512 651.879 226.511 651.891 226.511 651.902C226.511 651.913 226.511 651.924 226.51 651.934C226.51 651.945 226.51 651.956 226.51 651.966C226.51 651.976 226.51 651.986 226.509 651.996C226.509 652.01 226.508 652.041 226.508 652.053C226.508 652.062 226.508 652.071 226.508 652.08C226.508 652.089 226.507 652.097 226.507 652.106C226.507 652.114 226.507 652.122 226.507 652.13C226.507 652.138 226.507 652.146 226.506 652.154C226.506 652.161 226.506 652.192 226.506 652.198C226.505 652.205 226.505 652.211 226.505 652.218C226.505 652.225 226.505 652.231 226.505 652.237C226.504 652.268 226.504 652.28 226.504 652.306C226.503 652.312 226.503 652.33 226.503 652.335C226.503 652.348 226.503 652.349 226.503 652.361C226.501 652.421 226.501 652.463 226.5 652.474C226.5 652.478 226.5 652.477 226.5 652.48C226.5 652.484 226.5 652.48 226.5 652.484C226.5 652.486 226.5 652.485 226.5 652.487C226.5 652.487 226.5 652.487 226.5 652.488C226.5 652.488 226.5 652.488 226.5 652.489C226.5 652.49 226.5 652.49 226.5 652.49C226.5 652.49 226.5 652.491 226.5 652.491C226.5 652.491 226.5 652.491 226.5 652.491C226.5 652.491 226.5 652.491 226.5 652.491C226.5 652.491 227 652.5 227 652.5Z" fill="#0088FF"/>
<path d="M125 5.00004L120.988 0.848323L119.399 6.39872L125 5.00004ZM5.00004 652C5.1155 652 5.16206 652.064 5.13683 652.037C5.11203 652.01 5.0629 651.941 4.99858 651.801C4.87141 651.524 4.73399 651.079 4.59315 650.449C4.3133 649.198 4.04236 647.322 3.78625 644.851C3.27463 639.915 2.82833 632.668 2.47653 623.442C1.77306 604.994 1.44855 578.664 1.72999 547.151C2.29286 484.126 5.2793 400.388 12.5015 317.539C19.7244 234.683 31.1814 152.745 48.6767 93.3046C57.4261 63.5786 67.6728 39.526 79.6236 23.7991C91.5676 8.08118 105.135 0.767639 120.578 4.25288L120.798 3.27741C104.819 -0.328627 90.8959 7.31234 78.8274 23.1941C66.7657 39.0668 56.4778 63.259 47.7174 93.0223C30.1931 152.561 18.7296 234.579 11.5053 317.452C4.28037 400.332 1.29308 484.097 0.73003 547.142C0.448507 578.664 0.772994 605.011 1.47726 623.48C1.82933 632.714 2.2766 639.986 2.79158 644.954C3.04876 647.436 3.32439 649.358 3.61727 650.668C3.7628 651.318 3.91829 651.844 4.08969 652.218C4.17466 652.403 4.27623 652.579 4.40343 652.717C4.53021 652.853 4.73008 653 5.00004 653V652Z" fill="#0088FF"/>
<path d="M349 5L347.986 10.6838L353.415 8.71995L349 5ZM370 476.5C370.082 476.5 370.058 476.553 369.94 476.396C369.831 476.25 369.702 476 369.562 475.619C369.284 474.864 369.006 473.714 368.73 472.176C368.181 469.107 367.662 464.583 367.17 458.789C366.186 447.206 365.314 430.599 364.519 410.512C362.93 370.342 361.651 316.29 360.403 260.761C359.154 205.234 357.936 148.231 356.467 102.168C355.733 79.1361 354.936 58.8363 354.041 42.8214C353.147 26.8189 352.154 15.0621 351.022 9.1384L350.04 9.32608C351.157 15.1728 352.148 26.8616 353.043 42.8771C353.937 58.8802 354.733 79.1708 355.468 102.2C356.936 148.257 358.154 205.253 359.403 260.783C360.652 316.31 361.931 370.372 363.52 410.552C364.315 430.641 365.188 447.267 366.174 458.874C366.667 464.675 367.189 469.236 367.746 472.352C368.024 473.906 368.315 475.125 368.624 475.964C368.777 476.381 368.946 476.735 369.139 476.994C369.324 477.241 369.607 477.5 370 477.5V476.5Z" fill="#0088FF"/>
<path d="M349 5.00012L348.285 10.7292L353.604 8.4839L349 5.00012ZM350 477.5C350.398 477.5 350.673 477.225 350.844 476.983C351.027 476.724 351.186 476.37 351.331 475.954C351.623 475.115 351.897 473.895 352.158 472.339C352.682 469.218 353.169 464.651 353.619 458.84C354.52 447.215 355.279 430.562 355.895 410.444C357.128 370.204 357.791 316.07 357.871 260.488C357.951 204.905 357.448 147.87 356.348 101.825C355.798 78.8036 355.099 58.5268 354.249 42.552C353.4 26.5903 352.399 14.8897 351.238 9.04311L350.257 9.23784C351.402 15.0024 352.401 26.6308 353.251 42.6051C354.1 58.5662 354.799 78.8323 355.348 101.849C356.448 147.883 356.951 204.91 356.871 260.486C356.791 316.063 356.129 370.186 354.896 410.413C354.279 430.528 353.521 447.161 352.622 458.763C352.172 464.566 351.688 469.098 351.172 472.173C350.913 473.715 350.65 474.867 350.386 475.626C350.254 476.008 350.131 476.26 350.027 476.406C349.912 476.569 349.897 476.5 350 476.5V477.5Z" fill="#0088FF"/>
<path d="M125 5L121.259 9.39774L126.938 10.4385L125 5ZM125.955 476.502C126.009 476.497 125.987 476.537 125.879 476.416C125.77 476.295 125.637 476.075 125.489 475.725C125.195 475.029 124.899 473.951 124.607 472.488C124.025 469.574 123.48 465.244 122.973 459.671C121.961 448.532 121.108 432.487 120.414 413.002C119.026 374.037 118.273 321.344 118.142 266.692C118.01 212.04 118.499 155.433 119.595 108.637C120.692 61.8257 122.395 24.8699 124.684 9.49536L123.695 9.34806C121.394 24.7973 119.691 61.8223 118.596 108.613C117.499 155.42 117.01 212.036 117.142 266.695C117.273 321.352 118.026 374.057 119.415 413.038C120.109 432.527 120.962 448.594 121.977 459.762C122.485 465.343 123.033 469.715 123.626 472.684C123.922 474.164 124.233 475.323 124.567 476.114C124.733 476.506 124.918 476.842 125.134 477.083C125.349 477.324 125.657 477.533 126.045 477.498L125.955 476.502Z" fill="#0088FF"/>
<path d="M125 5L120.787 8.94741L126.312 10.6225L125 5ZM107 477.5C107.406 477.5 107.668 477.195 107.815 476.965C107.98 476.708 108.124 476.357 108.254 475.944C108.518 475.11 108.766 473.897 109.005 472.346C109.482 469.237 109.929 464.684 110.352 458.89C111.197 447.299 111.945 430.693 112.626 410.627C113.989 370.491 115.085 316.483 116.156 260.995C117.226 205.504 118.271 148.531 119.53 102.46C120.79 56.3659 122.264 21.2364 124.186 9.39254L123.199 9.23234C121.263 21.1601 119.789 56.3774 118.531 102.432C117.271 148.509 116.226 205.487 115.156 260.975C114.086 316.466 112.989 370.466 111.627 410.593C110.946 430.657 110.198 447.247 109.354 458.818C108.932 464.605 108.487 469.126 108.016 472.194C107.78 473.732 107.54 474.884 107.301 475.643C107.18 476.026 107.068 476.278 106.974 476.425C106.862 476.6 106.861 476.5 107 476.5V477.5Z" fill="#0088FF"/>
<path d="M349 5L348.3 10.7309L353.613 8.47176L349 5ZM369 300.5C369 300.5 368.994 300.5 368.979 300.494C368.963 300.487 368.934 300.471 368.894 300.436C368.811 300.364 368.704 300.233 368.581 300.018C368.335 299.586 368.08 298.913 367.823 297.985C367.311 296.137 366.824 293.4 366.36 289.873C365.433 282.827 364.609 272.709 363.858 260.439C362.356 235.903 361.145 202.809 359.969 168.58C358.792 134.354 357.65 98.9949 356.284 69.9385C354.92 40.9069 353.331 18.1024 351.249 9.03072L350.274 9.2544C352.331 18.2172 353.919 40.9122 355.285 69.9854C356.651 99.0337 357.793 134.384 358.969 168.614C360.146 202.841 361.357 235.948 362.86 260.5C363.611 272.774 364.436 282.921 365.368 290.004C365.834 293.542 366.328 296.335 366.859 298.252C367.124 299.207 367.405 299.974 367.712 300.513C367.995 301.009 368.407 301.5 369 301.5V300.5Z" fill="#0088FF"/>
<path d="M349 5.00008L348.848 10.7716L353.922 8.01749L349 5.00008ZM350 301.5C350.3 301.5 350.556 301.368 350.759 301.19C350.959 301.015 351.131 300.777 351.283 300.507C351.586 299.966 351.865 299.196 352.125 298.237C352.648 296.312 353.131 293.506 353.577 289.953C354.47 282.84 355.225 272.651 355.841 260.329C357.072 235.681 357.751 202.457 357.863 168.141C357.975 133.824 357.521 98.4087 356.489 69.3758C355.973 54.8596 355.312 41.9355 354.504 31.5406C353.697 21.1577 352.742 13.2644 351.63 8.83054L350.66 9.07387C351.749 13.4156 352.7 21.2305 353.507 31.6181C354.313 41.9937 354.974 54.9025 355.49 69.4113C356.521 98.4282 356.975 133.831 356.863 168.138C356.751 202.446 356.073 235.653 354.842 260.279C354.226 272.594 353.473 282.753 352.585 289.829C352.14 293.37 351.664 296.119 351.16 297.975C350.907 298.907 350.654 299.583 350.411 300.017C350.289 300.234 350.183 300.365 350.1 300.438C350.061 300.472 350.033 300.488 350.017 300.495C350.009 300.498 350.005 300.499 350.003 300.5C350.001 300.5 350 300.5 350 300.5V301.5Z" fill="#0088FF"/>
<path d="M125 5L120.245 8.27477L125.459 10.7553L125 5ZM125 300.5C125 300.5 124.999 300.5 124.997 300.5C124.995 300.499 124.99 300.498 124.982 300.495C124.967 300.488 124.939 300.472 124.899 300.438C124.817 300.365 124.71 300.234 124.588 300.018C124.345 299.585 124.092 298.91 123.839 297.98C123.334 296.128 122.858 293.385 122.412 289.851C121.522 282.789 120.765 272.65 120.143 260.357C118.9 235.774 118.197 202.622 118.036 168.355C117.875 134.088 118.255 98.7131 119.176 69.6862C120.098 40.6344 121.562 18.0019 123.553 9.17617L122.578 8.95605C120.56 17.8957 119.098 40.6377 118.177 69.6545C117.255 98.6962 116.875 134.084 117.036 168.359C117.197 202.634 117.9 235.803 119.144 260.407C119.767 272.707 120.525 282.876 121.42 289.976C121.867 293.522 122.351 296.322 122.874 298.243C123.135 299.2 123.413 299.969 123.717 300.509C123.869 300.779 124.041 301.016 124.241 301.191C124.445 301.368 124.7 301.5 125 301.5V300.5Z" fill="#0088FF"/>
<g filter="url(#filter0_d_167_356)">
<path d="M125 5L120.54 8.66677L125.946 10.6955L125 5ZM107 301.5C107.302 301.5 107.55 301.354 107.736 301.176C107.92 300.999 108.076 300.762 108.213 300.495C108.488 299.959 108.741 299.195 108.978 298.244C109.456 296.333 109.901 293.546 110.319 290.013C111.158 282.942 111.901 272.81 112.577 260.552C113.93 236.032 115.02 202.963 116.079 168.764C117.138 134.563 118.166 99.2302 119.395 70.1732C120.626 41.0941 122.056 18.3583 123.909 9.31164L122.93 9.11093C121.056 18.2554 119.625 41.0888 118.396 70.1309C117.167 99.1952 116.138 134.536 115.079 168.734C114.02 202.934 112.931 235.991 111.579 260.497C110.902 272.751 110.161 282.857 109.326 289.896C108.909 293.418 108.47 296.154 108.008 298.002C107.777 298.93 107.546 299.605 107.324 300.038C107.212 300.255 107.116 300.385 107.044 300.454C106.974 300.521 106.962 300.5 107 300.5V301.5Z" fill="#0088FF"/>
</g>
<defs>
<filter id="filter0_d_167_356" x="102.979" y="5" width="26.9673" height="304.5" filterUnits="userSpaceOnUse" color-interpolation-filters="sRGB">
<feFlood flood-opacity="0" result="BackgroundImageFix"/>
<feColorMatrix in="SourceAlpha" type="matrix" values="0 0 0 0 0 0 0 0 0 0 0 0 0 0 0 0 0 0 127 0" result="hardAlpha"/>
<feOffset dy="4"/>
<feGaussianBlur stdDeviation="2"/>
<feComposite in2="hardAlpha" operator="out"/>
<feColorMatrix type="matrix" values="0 0 0 0 0 0 0 0 0 0 0 0 0 0 0 0 0 0 0.25 0"/>
<feBlend mode="normal" in2="BackgroundImageFix" result="effect1_dropShadow_167_356"/>
<feBlend mode="normal" in="SourceGraphic" in2="effect1_dropShadow_167_356" result="shape"/>
</filter>
</defs>
</svg>
