<svg width="464" height="1363" viewBox="0 0 464 1363" fill="none" xmlns="http://www.w3.org/2000/svg">
<path d="M0.5 483L3.40367 478.01L-2.3698 477.99L0.5 483ZM464 0.5C464 0 463.998 5.96046e-08 463.994 3.8147e-06C463.991 7.48038e-06 463.985 1.49608e-05 463.978 2.95341e-05C463.964 5.87106e-05 463.942 0.000116765 463.914 0.00023213C463.858 0.00046289 463.773 0.000923067 463.662 0.00184062C463.439 0.00367579 463.108 0.00734061 462.671 0.0146593C461.797 0.0292968 460.501 0.0585499 458.811 0.117013C455.432 0.233939 450.477 0.467707 444.172 0.935081C431.562 1.86982 413.548 3.73902 391.923 7.47701C348.674 14.9526 290.971 29.9046 233.167 59.8135C175.361 89.7236 117.447 134.595 73.7968 201.91C30.1447 269.227 0.775124 358.959 0.0150423 478.558L1.01502 478.564C1.77404 359.133 31.0996 269.592 74.6358 202.454C118.173 135.314 175.941 90.5492 233.627 60.7017C291.314 30.853 348.913 15.9262 392.093 8.4624C413.682 4.73068 431.664 2.86504 444.246 1.93234C450.537 1.46601 455.478 1.23292 458.846 1.11642C460.529 1.05816 461.819 1.02906 462.687 1.01452C463.122 1.00725 463.45 1.00362 463.67 1.00181C463.78 1.0009 463.863 1.00045 463.918 1.00022C463.946 1.00011 463.966 1.00006 463.98 1.00003C463.987 1.00001 463.992 1.00001 463.995 1C463.999 1 464 1 464 0.5Z" fill="#FF8800"/>
<path d="M122.5 483L125.4 478.008L119.626 477.992L122.5 483ZM464 0.5C464 0 463.998 1.19209e-07 463.995 4.02331e-06C463.993 7.77841e-06 463.989 1.55866e-05 463.983 3.03984e-05C463.972 6.01709e-05 463.956 0.00011909 463.935 0.000235647C463.893 0.000468791 463.831 0.000932515 463.749 0.00185493C463.584 0.00369975 463.338 0.00737935 463.016 0.0147184C462.37 0.0293964 461.413 0.0587124 460.167 0.117265C457.673 0.234369 454.02 0.468421 449.371 0.936225C440.073 1.87181 426.792 3.74248 410.851 7.48292C378.968 14.9636 336.435 29.9248 293.828 59.8484C208.589 119.714 123.158 239.394 122.012 478.559L123.012 478.563C124.157 239.667 209.471 120.316 294.403 60.6668C336.882 30.8328 379.29 15.9152 411.079 8.45648C426.973 4.72722 440.21 2.86304 449.471 1.9312C454.101 1.46529 457.737 1.23249 460.214 1.11616C461.452 1.058 462.4 1.02896 463.038 1.01446C463.357 1.00721 463.599 1.00359 463.76 1.00179C463.84 1.00089 463.901 1.00044 463.941 1.00022C463.961 1.00011 463.976 1.00005 463.986 1.00003C463.991 1.00001 463.994 1.00001 463.997 1C463.999 1 464 1 464 0.5Z" fill="#FF8800"/>
<path d="M0.5 659L3.39598 654.005L-2.37751 653.995L0.5 659ZM464 0.5C464 0 463.998 1.19209e-07 463.994 5.36442e-06C463.99 1.0401e-05 463.985 2.08318e-05 463.978 4.09186e-05C463.963 8.11815e-05 463.942 0.000161082 463.913 0.00031963C463.856 0.000636697 463.772 0.0012683 463.66 0.00252637C463.436 0.00504252 463.104 0.0100646 462.665 0.0200885C461.789 0.0401361 460.49 0.0801908 458.796 0.16022C455.409 0.320276 450.444 0.640234 444.127 1.27984C431.492 2.55904 413.445 5.11692 391.783 10.2318C348.461 20.4613 290.674 40.9201 232.816 81.8389C117.073 163.695 1.14269 327.354 0.00835568 654.475L1.00835 654.479C2.14176 327.623 117.958 164.294 233.393 82.6553C291.124 41.827 348.785 21.4123 392.013 11.205C413.627 6.10147 431.63 3.55015 444.228 2.27476C450.526 1.63706 455.473 1.31837 458.843 1.1591C460.528 1.07947 461.819 1.0397 462.688 1.01983C463.123 1.00989 463.452 1.00494 463.671 1.00246C463.781 1.00123 463.864 1.00061 463.919 1.0003C463.946 1.00015 463.967 1.00007 463.98 1.00004C463.987 1.00002 463.992 1.00001 463.995 1C463.999 1 464 1 464 0.5Z" fill="#FF8800"/>
<path d="M122.5 659L125.394 654.004L119.62 653.996L122.5 659ZM464 0.5C464 0 463.998 2.08616e-07 463.995 5.75185e-06C463.992 1.09673e-05 463.988 2.19643e-05 463.983 4.25279e-05C463.972 8.38935e-05 463.956 0.000165462 463.934 0.000326186C463.892 0.000647664 463.829 0.00128594 463.746 0.00255305C463.58 0.00508726 463.334 0.0101368 463.01 0.0201985C462.361 0.0403217 461.402 0.0804934 460.152 0.160688C457.651 0.321076 453.988 0.64156 449.329 1.28195C440.009 2.56273 426.701 5.12323 410.73 10.2422C378.785 20.4807 336.19 40.9534 293.548 81.8864C208.258 163.759 122.862 327.405 122.006 654.476L123.006 654.478C123.861 327.572 209.212 164.229 294.241 82.6078C336.759 41.7937 379.216 21.3928 411.035 11.1945C426.945 6.09516 440.196 3.54646 449.465 2.27264C454.099 1.63574 457.738 1.31757 460.216 1.15864C461.455 1.07917 462.403 1.03951 463.041 1.01972C463.36 1.00982 463.601 1.00489 463.761 1.00244C463.842 1.00121 463.902 1.0006 463.942 1.0003C463.962 1.00015 463.977 1.00007 463.986 1.00004C463.991 1.00002 463.995 1.00001 463.997 1C463.999 1 464 1 464 0.5Z" fill="#FF8800"/>
<path d="M0.5 835L3.39249 830.003L-2.38101 829.997L0.5 835ZM464 0.5C464 0 463.998 1.78814e-07 463.994 6.94394e-06C463.99 1.3411e-05 463.984 2.68817e-05 463.977 5.25713e-05C463.963 0.000104129 463.941 0.000206202 463.912 0.000408292C463.855 0.000812471 463.77 0.00161672 463.658 0.00321701C463.434 0.0064176 463.1 0.0128024 462.661 0.0255392C461.782 0.0510126 460.481 0.101894 458.784 0.203528C455.392 0.406794 450.42 0.813074 444.094 1.62513C431.442 3.24924 413.372 6.49656 391.687 12.9895C348.315 25.9757 290.477 51.9453 232.589 103.876C116.801 207.748 0.899099 415.4 0.00518122 830.484L1.00518 830.486C1.8987 415.585 117.744 208.245 233.257 104.62C291.019 52.8029 348.72 26.8983 391.974 13.9475C413.601 7.47196 431.617 4.23502 444.221 2.617C450.523 1.80799 455.473 1.40374 458.844 1.20174C460.53 1.10074 461.821 1.0503 462.69 1.02512C463.124 1.01253 463.453 1.00625 463.672 1.00312C463.782 1.00155 463.865 1.00077 463.919 1.00038C463.947 1.00019 463.967 1.00009 463.981 1.00005C463.987 1.00002 463.992 1.00001 463.996 1.00001C463.999 1 464 1 464 0.5Z" fill="#FF8800"/>
<path d="M122.5 835L125.391 830.003L119.618 829.997L122.5 835ZM464 0.5C464 0 463.998 3.57628e-07 463.995 7.59959e-06C463.992 1.43051e-05 463.988 2.86996e-05 463.982 5.51939e-05C463.971 0.00010848 463.955 0.000213206 463.933 0.000418842C463.89 0.000830114 463.827 0.00164506 463.744 0.00325987C463.577 0.00648946 463.33 0.0129184 463.005 0.0257159C462.354 0.0513107 461.392 0.10238 460.139 0.204278C457.633 0.408074 453.963 0.815192 449.296 1.62849C439.961 3.25508 426.634 6.50642 410.643 13.0053C378.658 26.0043 336.028 51.9906 293.371 103.931C208.062 207.805 122.678 415.436 122.004 830.484L123.004 830.486C123.678 415.549 209.042 208.187 294.144 104.565C336.692 52.7575 379.184 26.8697 411.019 13.9317C426.938 7.4621 440.196 4.22918 449.467 2.61364C454.103 1.80587 457.743 1.40246 460.22 1.20099C461.459 1.10025 462.407 1.05001 463.044 1.02494C463.362 1.01241 463.603 1.00618 463.763 1.00307C463.843 1.00152 463.903 1.00075 463.943 1.00037C463.963 1.00018 463.977 1.00009 463.987 1.00004C463.992 1.00002 463.995 1.00001 463.997 1C463.999 1 464 1 464 0.5Z" fill="#FF8800"/>
<path d="M0.5 1011L3.39071 1006L-2.38279 1006L0.5 1011ZM464 0.5C464 0 463.998 2.98023e-07 463.994 8.64267e-06C463.99 1.65403e-05 463.984 3.31402e-05 463.977 6.4522e-05C463.962 0.000127524 463.94 0.000252038 463.912 0.000498027C463.854 0.000990033 463.769 0.001968 463.656 0.00391191C463.432 0.00779971 463.097 0.0155512 462.657 0.0310062C461.777 0.061916 460.473 0.12364 458.775 0.246897C455.378 0.49341 450.401 0.98606 444.069 1.97062C431.405 3.93974 413.32 7.87656 391.619 15.7474C348.214 31.49 290.347 62.9677 232.445 125.901C116.641 251.768 0.752297 503.391 0.00363123 1006.42L1.00363 1006.42C1.7521 503.527 117.611 252.191 233.181 126.578C290.966 63.7721 348.693 32.3798 391.96 16.6875C413.594 8.84091 431.615 4.919 444.222 2.95875C450.526 1.97862 455.476 1.48893 458.847 1.24427C460.533 1.12195 461.824 1.06088 462.692 1.03039C463.126 1.01515 463.455 1.00755 463.674 1.00376C463.783 1.00187 463.866 1.00093 463.92 1.00046C463.947 1.00023 463.968 1.00011 463.981 1.00006C463.988 1.00003 463.992 1.00001 463.996 1.00001C463.999 1 464 1 464 0.5Z" fill="#FF8800"/>
<path d="M122.5 1011L125.39 1006L119.616 1006L122.5 1011ZM464 0.5C464 0 463.998 5.36442e-07 463.995 9.59635e-06C463.992 1.78516e-05 463.987 3.57926e-05 463.982 6.83665e-05C463.97 0.000133932 463.954 0.00026229 463.932 0.000513494C463.889 0.0010159 463.825 0.00200957 463.742 0.00397474C463.574 0.00790507 463.326 0.0157214 463 0.0312652C462.348 0.0623529 461.383 0.124351 460.128 0.247994C457.618 0.495279 453.943 0.989144 449.269 1.97546C439.922 3.94815 426.582 7.89053 410.579 15.7689C378.569 31.5273 335.923 63.0225 293.261 125.959C207.946 251.82 122.567 503.418 122.003 1006.42L123.003 1006.42C123.567 503.5 208.937 252.139 294.089 126.52C336.66 63.7173 379.177 32.3426 411.021 16.6661C426.944 8.82694 440.205 4.91059 449.476 2.95391C454.112 1.97554 457.75 1.48706 460.226 1.24318C461.464 1.12123 462.411 1.06044 463.047 1.03013C463.365 1.01498 463.605 1.00744 463.765 1.0037C463.845 1.00183 463.905 1.0009 463.944 1.00045C463.963 1.00022 463.978 1.00011 463.987 1.00005C463.992 1.00002 463.995 1.00001 463.998 1.00001C463.999 0.999999 464 1 464 0.5Z" fill="#FF8800"/>
<path d="M0.5 1187L3.38949 1182L-2.38401 1182L0.5 1187ZM464 0.5C464 0 463.998 3.8743e-07 463.993 1.03712e-05C463.99 1.97589e-05 463.984 3.95775e-05 463.976 7.6741e-05C463.961 0.000151426 463.94 0.000298679 463.911 0.000589043C463.853 0.00116977 463.768 0.00232288 463.655 0.00461254C463.429 0.00919178 463.094 0.0183171 462.653 0.0365014C461.771 0.0728698 460.466 0.145474 458.766 0.29042C455.364 0.580309 450.382 1.15957 444.044 2.31704C431.368 4.63201 413.269 9.25986 391.553 18.5113C348.118 37.0154 290.226 74.01 232.312 147.962C116.491 295.857 0.608731 591.528 0.00237846 1182.66L1.00238 1182.66C1.60862 591.632 117.475 296.223 233.1 148.578C290.909 74.76 348.664 37.8696 391.945 19.4312C413.587 10.2114 431.614 5.60362 444.224 3.30077C450.529 2.14934 455.479 1.57414 458.85 1.28681C460.536 1.14314 461.827 1.07144 462.694 1.03565C463.128 1.01776 463.456 1.00885 463.675 1.00441C463.784 1.00219 463.867 1.00109 463.921 1.00054C463.948 1.00027 463.968 1.00013 463.981 1.00006C463.988 1.00003 463.993 1.00002 463.996 1.00001C463.999 1 464 1 464 0.5Z" fill="#FF8800"/>
<path d="M122.5 1187L125.389 1182L119.615 1182L122.5 1187ZM464 0.5C464 0 463.998 7.15256e-07 463.994 1.16825e-05C463.992 2.15471e-05 463.987 4.3273e-05 463.981 8.20458e-05C463.97 0.000160247 463.953 0.000312835 463.931 0.000610381C463.888 0.00120544 463.824 0.00238022 463.739 0.00469917C463.571 0.0093371 463.322 0.0185517 462.995 0.0368583C462.341 0.0734716 461.375 0.146453 460.117 0.291926C457.603 0.582875 453.922 1.16378 449.243 2.32359C439.885 4.64334 426.534 9.27834 410.519 18.5384C378.488 37.06 335.828 74.0712 293.161 148.02C207.836 295.903 122.46 591.548 122.002 1182.66L123.002 1182.66C123.46 591.612 208.832 296.177 294.027 148.52C336.62 74.6989 379.163 37.825 411.02 19.4041C426.95 10.1929 440.213 5.59228 449.484 3.29422C454.12 2.14512 457.758 1.57158 460.232 1.2853C461.47 1.14216 462.416 1.07084 463.051 1.0353C463.368 1.01753 463.608 1.0087 463.767 1.00432C463.846 1.00213 463.906 1.00105 463.945 1.00052C463.964 1.00025 463.979 1.00012 463.988 1.00006C463.992 1.00003 463.995 1.00001 463.998 1.00001C464 0.999999 464 1 464 0.5Z" fill="#FF8800"/>
<path d="M1 1363L3.88893 1358L-1.88457 1358L1 1363ZM464 0.5C464 0 463.998 5.06639e-07 463.993 1.21891e-05C463.99 2.3067e-05 463.984 4.62234e-05 463.976 8.9258e-05C463.961 0.000175744 463.939 0.000346005 463.91 0.000680983C463.852 0.001351 463.767 0.00268 463.654 0.00531608C463.428 0.0105882 463.092 0.0210885 462.651 0.0420014C461.769 0.0838271 460.464 0.167303 458.764 0.333905C455.363 0.66711 450.383 1.33282 444.048 2.66285C431.379 5.32295 413.292 10.6402 391.593 21.2684C348.191 42.5264 290.355 85.0213 232.504 169.958C116.811 339.818 1.05734 679.416 0.501998 1358.41L1.502 1358.42C2.05727 679.499 117.803 340.139 233.331 170.521C291.091 85.718 348.796 43.3433 392.033 22.1664C413.653 11.5772 431.66 6.28576 444.254 3.64151C450.551 2.31936 455.495 1.65898 458.861 1.32914C460.544 1.16422 461.833 1.08193 462.699 1.04088C463.132 1.02035 463.459 1.01013 463.677 1.00504C463.786 1.0025 463.868 1.00124 463.922 1.00061C463.949 1.0003 463.969 1.00015 463.982 1.00007C463.988 1.00003 463.993 1.00002 463.996 1.00001C463.999 0.999999 464 1 464 0.5Z" fill="#FF8800"/>
</svg>
