<svg width="370" height="652" viewBox="0 0 370 652" fill="none" xmlns="http://www.w3.org/2000/svg">
<path d="M236 115L233.118 120.003L238.892 119.997L236 115ZM370 652C370 651.5 370 651.5 370 651.5C370 651.5 369.999 651.5 369.998 651.5C369.995 651.5 369.99 651.5 369.984 651.5C369.97 651.5 369.949 651.499 369.919 651.498C369.861 651.496 369.771 651.493 369.65 651.485C369.41 651.469 369.047 651.438 368.571 651.374C367.62 651.247 366.214 650.992 364.418 650.479C360.826 649.453 355.672 647.395 349.471 643.263C337.069 635.001 320.458 618.434 303.796 585.21C270.465 518.748 236.967 385.709 236.505 119.47L235.505 119.472C235.967 385.762 269.467 518.988 302.902 585.658C319.624 619 336.339 635.716 348.916 644.095C355.204 648.285 360.453 650.387 364.143 651.441C365.987 651.968 367.441 652.232 368.439 652.366C368.938 652.432 369.323 652.466 369.586 652.483C369.717 652.491 369.818 652.496 369.888 652.498C369.922 652.499 369.949 652.499 369.968 652.5C369.977 652.5 369.985 652.5 369.99 652.5C369.993 652.5 369.995 652.5 369.997 652.5C369.999 652.5 370 652.5 370 652Z" fill="#0088FF"/>
<path d="M236 115L233.126 120.007L238.9 119.993L236 115ZM298 584C298 467.441 282.863 408.773 267.608 350.498C252.364 292.265 237.003 234.429 236.512 119.469L235.512 119.473C236.003 234.552 251.386 292.48 266.641 350.752C281.884 408.982 297 467.559 297 584H298Z" fill="#0088FF"/>
<path d="M236 115L233.02 119.945L238.793 120.053L236 115ZM226 650.5C226 650.5 226.5 650.509 226.5 650.509C226.5 650.509 226.5 650.509 226.5 650.509C226.5 650.509 226.5 650.509 226.5 650.509C226.5 650.509 226.5 650.509 226.5 650.509C226.5 650.509 226.5 650.509 226.5 650.507C226.5 650.505 226.5 650.506 226.5 650.503C226.5 650.502 226.5 650.501 226.5 650.501C226.5 650.5 226.5 650.499 226.5 650.498C226.5 650.498 226.5 650.497 226.5 650.496C226.5 650.495 226.5 650.494 226.5 650.493C226.5 650.492 226.5 650.491 226.5 650.49C226.5 650.489 226.5 650.488 226.5 650.486C226.5 650.483 226.5 650.481 226.501 650.478C226.501 650.476 226.501 650.474 226.501 650.473C226.501 650.471 226.501 650.469 226.501 650.467C226.501 650.455 226.501 650.467 226.501 650.455C226.501 650.452 226.501 650.45 226.501 650.448C226.501 650.445 226.501 650.442 226.501 650.44C226.501 650.437 226.501 650.434 226.501 650.431C226.501 650.429 226.501 650.426 226.502 650.422C226.502 650.397 226.502 650.409 226.502 650.38C226.503 650.332 226.506 650.201 226.508 650.072C226.51 649.98 226.511 649.933 226.513 649.815C226.513 649.802 226.513 649.789 226.514 649.777C226.514 649.764 226.514 649.751 226.514 649.737C226.515 649.724 226.515 649.711 226.515 649.697C226.515 649.683 226.516 649.669 226.516 649.655C226.516 649.641 226.516 649.626 226.517 649.611C226.517 649.597 226.517 649.582 226.518 649.566C226.519 649.506 226.518 649.535 226.519 649.472C226.52 649.456 226.52 649.439 226.52 649.423C226.521 649.406 226.521 649.389 226.521 649.372C226.522 649.303 226.522 649.336 226.523 649.265C226.525 649.173 226.526 649.134 226.527 649.033C226.53 648.924 226.53 648.89 226.532 648.773C226.533 648.75 226.533 648.727 226.534 648.703C226.534 648.68 226.535 648.656 226.535 648.632C226.536 648.6 226.537 648.518 226.538 648.484C226.539 648.392 226.542 648.267 226.544 648.164C226.544 648.136 226.545 648.108 226.545 648.08C226.546 648.051 226.546 648.022 226.547 647.993C226.548 647.961 226.55 647.848 226.55 647.813C226.551 647.782 226.551 647.751 226.552 647.72C226.553 647.689 226.553 647.657 226.554 647.625C226.554 647.593 226.555 647.561 226.556 647.528C226.556 647.495 226.557 647.462 226.557 647.428C226.558 647.395 226.559 647.361 226.559 647.327C226.56 647.293 226.561 647.258 226.561 647.223C226.562 647.188 226.563 647.153 226.563 647.117C226.564 647.081 226.565 647.045 226.565 647.009C226.566 646.972 226.567 646.935 226.567 646.898C226.568 646.861 226.569 646.823 226.569 646.785C226.57 646.747 226.571 646.709 226.572 646.67C226.572 646.632 226.573 646.592 226.574 646.553C226.575 646.473 226.577 646.394 226.578 646.311C226.579 646.269 226.58 646.228 226.581 646.186C226.581 646.144 226.582 646.102 226.583 646.059C226.584 646.016 226.585 645.973 226.585 645.929C226.586 645.885 226.587 645.841 226.588 645.797C226.589 645.753 226.59 645.708 226.59 645.662C226.591 645.617 226.592 645.571 226.593 645.525C226.594 645.479 226.595 645.432 226.596 645.385C226.596 645.338 226.597 645.291 226.598 645.243C226.599 645.195 226.6 645.147 226.601 645.098C226.602 645.049 226.603 645 226.604 644.951C226.605 644.901 226.606 644.851 226.607 644.8C226.607 644.75 226.608 644.699 226.609 644.648C226.61 644.596 226.611 644.544 226.612 644.492C226.613 644.44 226.614 644.387 226.615 644.334C226.616 644.28 226.617 644.227 226.618 644.172C226.619 644.118 226.62 644.064 226.621 644.009C226.624 643.868 226.625 643.817 226.628 643.672C226.629 643.615 226.63 643.558 226.631 643.5C226.632 643.442 226.633 643.384 226.634 643.325C226.635 643.266 226.636 643.207 226.637 643.147C226.639 643.087 226.64 643.026 226.641 642.966C226.642 642.905 226.643 642.844 226.644 642.782C226.645 642.72 226.647 642.658 226.648 642.595C226.649 642.532 226.65 642.469 226.651 642.405C226.652 642.341 226.654 642.277 226.655 642.212C226.656 642.147 226.657 642.082 226.659 642.016C226.66 641.95 226.661 641.884 226.662 641.817C226.663 641.75 226.665 641.682 226.666 641.615C226.667 641.547 226.669 641.478 226.67 641.409C226.671 641.34 226.672 641.271 226.674 641.201C226.675 641.131 226.676 641.06 226.678 640.989C226.679 640.918 226.68 640.847 226.682 640.775C226.683 640.703 226.684 640.63 226.686 640.557C226.691 640.256 226.697 639.971 226.703 639.653C226.704 639.575 226.706 639.497 226.707 639.418C226.708 639.34 226.71 639.26 226.711 639.181C226.713 639.101 226.714 639.02 226.716 638.94C226.717 638.859 226.719 638.777 226.721 638.695C226.724 638.516 226.726 638.379 226.73 638.196C226.731 638.112 226.733 638.027 226.735 637.941C226.736 637.856 226.738 637.77 226.739 637.683C226.741 637.596 226.743 637.509 226.744 637.421C226.746 637.333 226.748 637.245 226.749 637.156C226.751 637.067 226.753 636.977 226.754 636.887C226.756 636.797 226.758 636.706 226.759 636.615C226.761 636.523 226.763 636.431 226.765 636.339C226.766 636.246 226.768 636.153 226.77 636.059C226.772 635.965 226.773 635.871 226.775 635.776C226.777 635.681 226.779 635.585 226.78 635.489C226.782 635.392 226.784 635.295 226.786 635.198C226.788 635.1 226.789 635.002 226.791 634.903C226.793 634.805 226.795 634.705 226.797 634.605C226.799 634.505 226.801 634.405 226.803 634.303C226.804 634.202 226.806 634.1 226.808 633.997C226.81 633.895 226.812 633.792 226.814 633.688C226.816 633.584 226.818 633.48 226.82 633.374C226.822 633.269 226.824 633.164 226.826 633.057C226.828 632.951 226.83 632.844 226.832 632.736C226.834 632.628 226.836 632.52 226.838 632.411C226.84 632.302 226.842 632.192 226.844 632.082C226.846 631.971 226.848 631.86 226.85 631.749C226.852 631.637 226.854 631.525 226.857 631.412C226.859 631.299 226.861 631.185 226.863 631.071C226.865 630.956 226.867 630.841 226.869 630.726C226.872 630.61 226.874 630.494 226.876 630.377C226.878 630.26 226.88 630.142 226.882 630.023C226.885 629.905 226.887 629.786 226.889 629.666C226.891 629.546 226.894 629.426 226.896 629.305C226.898 629.183 226.9 629.062 226.903 628.939C226.907 628.721 226.912 628.419 226.917 628.195C226.919 628.07 226.921 627.944 226.924 627.817C226.926 627.69 226.928 627.563 226.931 627.435C226.933 627.306 226.936 627.178 226.938 627.048C226.94 626.918 226.943 626.788 226.945 626.657C226.948 626.526 226.95 626.394 226.953 626.262C226.955 626.129 226.958 625.996 226.96 625.862C226.966 625.566 226.97 625.351 226.975 625.049C226.978 624.913 226.98 624.775 226.983 624.637C226.986 624.498 226.988 624.359 226.991 624.219C226.996 623.938 227.001 623.659 227.007 623.371C227.009 623.228 227.012 623.085 227.015 622.94C227.017 622.796 227.02 622.651 227.023 622.505C227.026 622.359 227.028 622.213 227.031 622.065C227.034 621.918 227.037 621.77 227.039 621.621C227.042 621.472 227.045 621.322 227.048 621.172C227.051 621.021 227.053 620.87 227.056 620.718C227.059 620.566 227.062 620.413 227.065 620.26C227.068 620.106 227.071 619.952 227.073 619.797C227.076 619.642 227.079 619.486 227.082 619.329C227.085 619.173 227.088 619.015 227.091 618.857C227.094 618.699 227.097 618.539 227.1 618.38C227.103 618.22 227.106 618.059 227.109 617.898C227.112 617.736 227.115 617.574 227.118 617.411C227.121 617.248 227.124 617.084 227.127 616.919C227.13 616.755 227.133 616.589 227.136 616.423C227.14 616.257 227.143 616.09 227.146 615.922C227.149 615.754 227.152 615.585 227.155 615.416C227.158 615.246 227.162 615.076 227.165 614.905C227.168 614.733 227.171 614.561 227.174 614.389C227.178 614.216 227.181 614.042 227.184 613.868C227.187 613.693 227.191 613.518 227.194 613.342C227.197 613.165 227.201 612.988 227.204 612.811C227.207 612.633 227.211 612.454 227.214 612.275C227.217 612.095 227.221 611.915 227.224 611.734C227.227 611.552 227.231 611.37 227.234 611.188C227.238 611.005 227.241 610.821 227.245 610.636C227.248 610.452 227.251 610.266 227.255 610.08C227.258 609.894 227.262 609.706 227.265 609.518C227.269 609.33 227.272 609.141 227.276 608.952C227.28 608.762 227.283 608.571 227.287 608.38C227.29 608.188 227.294 607.996 227.297 607.803C227.301 607.609 227.305 607.415 227.308 607.22C227.312 607.025 227.316 606.829 227.319 606.633C227.323 606.436 227.327 606.238 227.33 606.04C227.338 605.655 227.345 605.23 227.353 604.838C227.357 604.636 227.36 604.433 227.364 604.229C227.368 604.025 227.372 603.82 227.376 603.615C227.379 603.409 227.383 603.202 227.387 602.995C227.391 602.788 227.395 602.579 227.399 602.37C227.403 602.16 227.407 601.95 227.411 601.739C227.415 601.528 227.419 601.316 227.423 601.103C227.427 600.89 227.431 600.676 227.435 600.461C227.439 600.247 227.443 600.031 227.447 599.814C227.451 599.598 227.455 599.38 227.459 599.162C227.463 598.943 227.467 598.724 227.471 598.503C227.475 598.283 227.479 598.062 227.483 597.839C227.488 597.617 227.492 597.394 227.496 597.17C227.5 596.946 227.504 596.721 227.509 596.495C227.513 596.269 227.517 596.042 227.521 595.814C227.526 595.586 227.53 595.357 227.534 595.127C227.538 594.897 227.543 594.667 227.547 594.435C227.551 594.203 227.556 593.971 227.56 593.737C227.564 593.503 227.569 593.269 227.573 593.033C227.578 592.798 227.582 592.561 227.586 592.324C227.591 592.086 227.595 591.848 227.6 591.608C227.604 591.369 227.609 591.128 227.613 590.887C227.618 590.646 227.622 590.403 227.627 590.16C227.631 589.917 227.636 589.672 227.641 589.427C227.645 589.182 227.65 588.935 227.654 588.688C227.659 588.441 227.664 588.192 227.668 587.943C227.673 587.694 227.678 587.444 227.682 587.192C227.687 586.941 227.692 586.689 227.696 586.436C227.701 586.182 227.706 585.928 227.711 585.673C227.715 585.418 227.72 585.161 227.725 584.904C227.73 584.647 227.735 584.388 227.74 584.129C227.744 583.87 227.749 583.61 227.754 583.348C227.759 583.087 227.764 582.825 227.769 582.561C227.774 582.298 227.779 582.033 227.784 581.768C227.789 581.503 227.794 581.236 227.799 580.969C227.804 580.701 227.809 580.433 227.814 580.163C227.819 579.894 227.824 579.623 227.829 579.352C227.834 579.08 227.839 578.807 227.844 578.534C227.849 578.26 227.854 577.985 227.859 577.71C227.865 577.434 227.87 577.157 227.875 576.879C227.88 576.601 227.885 576.322 227.891 576.042C227.896 575.762 227.901 575.481 227.906 575.199C227.912 574.917 227.917 574.634 227.922 574.35C227.927 574.066 227.933 573.781 227.938 573.494C227.943 573.208 227.949 572.921 227.954 572.632C227.96 572.344 227.965 572.054 227.97 571.764C227.976 571.473 227.981 571.182 227.987 570.889C227.992 570.596 227.998 570.302 228.003 570.007C228.009 569.713 228.014 569.417 228.02 569.12C228.025 568.822 228.031 568.524 228.036 568.225C228.042 567.926 228.048 567.626 228.053 567.324C228.059 567.023 228.065 566.72 228.07 566.417C228.076 566.113 228.082 565.809 228.087 565.503C228.093 565.197 228.099 564.89 228.105 564.582C228.11 564.274 228.116 563.965 228.122 563.655C228.128 563.345 228.133 563.033 228.139 562.721C228.145 562.408 228.151 562.095 228.157 561.78C228.163 561.466 228.169 561.15 228.175 560.833C228.18 560.516 228.186 560.198 228.192 559.879C228.198 559.56 228.204 559.24 228.21 558.918C228.216 558.597 228.222 558.274 228.228 557.951C228.234 557.627 228.24 557.302 228.247 556.977C228.253 556.651 228.259 556.324 228.265 555.995C228.271 555.667 228.277 555.338 228.283 555.007C228.289 554.677 228.296 554.345 228.302 554.013C228.308 553.68 228.314 553.346 228.321 553.011C228.327 552.676 228.333 552.34 228.339 552.002C228.346 551.665 228.352 551.327 228.358 550.987C228.365 550.647 228.371 550.306 228.378 549.964C228.384 549.622 228.39 549.279 228.397 548.935C228.403 548.591 228.41 548.245 228.416 547.898C228.423 547.552 228.429 547.204 228.436 546.855C228.442 546.506 228.449 546.156 228.455 545.804C228.462 545.453 228.468 545.1 228.475 544.747C228.482 544.393 228.488 544.038 228.495 543.682C228.501 543.326 228.508 542.969 228.515 542.61C228.522 542.252 228.528 541.892 228.535 541.531C228.542 541.17 228.548 540.808 228.555 540.445C228.562 540.082 228.569 539.717 228.576 539.352C228.583 538.986 228.589 538.619 228.596 538.251C228.603 537.883 228.61 537.514 228.617 537.143C228.624 536.773 228.631 536.401 228.638 536.028C228.645 535.655 228.652 535.281 228.659 534.906C228.666 534.531 228.673 534.154 228.68 533.776C228.687 533.398 228.694 533.02 228.701 532.639C228.708 532.259 228.715 531.878 228.722 531.495C228.73 531.112 228.737 530.728 228.744 530.343C228.759 529.536 228.772 528.834 228.787 528.017C228.795 527.627 228.802 527.236 228.809 526.843C228.817 526.451 228.824 526.057 228.831 525.662C228.839 525.267 228.846 524.87 228.854 524.473C228.861 524.075 228.868 523.676 228.876 523.276C228.883 522.876 228.891 522.475 228.898 522.072C228.906 521.67 228.913 521.266 228.921 520.861C228.929 520.455 228.936 520.049 228.944 519.641C228.951 519.234 228.959 518.825 228.967 518.414C228.974 518.004 228.982 517.593 228.99 517.18C228.997 516.767 229.005 516.353 229.013 515.938C229.021 515.522 229.028 515.106 229.036 514.688C229.044 514.27 229.052 513.851 229.06 513.43C229.068 513.01 229.075 512.588 229.083 512.165C229.091 511.742 229.099 511.317 229.107 510.892C229.115 510.466 229.123 510.039 229.131 509.611C229.139 509.183 229.147 508.753 229.155 508.322C229.163 507.891 229.171 507.459 229.179 507.026C229.187 506.592 229.196 506.157 229.204 505.721C229.212 505.285 229.22 504.848 229.228 504.409C229.236 503.97 229.245 503.53 229.253 503.089C229.27 502.19 229.286 501.334 229.303 500.425C229.311 499.978 229.319 499.53 229.328 499.081C229.336 498.631 229.345 498.181 229.353 497.729C229.361 497.277 229.37 496.823 229.378 496.369C229.387 495.914 229.395 495.458 229.404 495C229.412 494.543 229.421 494.084 229.43 493.624C229.438 493.164 229.447 492.703 229.455 492.24C229.464 491.777 229.473 491.313 229.481 490.848C229.49 490.382 229.499 489.915 229.508 489.447C229.516 488.979 229.525 488.509 229.534 488.038C229.543 487.567 229.552 487.095 229.56 486.622C229.569 486.148 229.578 485.673 229.587 485.196C229.596 484.72 229.605 484.242 229.614 483.763C229.623 483.284 229.632 482.803 229.641 482.321C229.65 481.84 229.659 481.356 229.668 480.872C229.677 480.387 229.686 479.901 229.695 479.413C229.704 478.926 229.713 478.437 229.722 477.947C229.732 477.457 229.741 476.965 229.75 476.472C229.759 475.979 229.768 475.485 229.778 474.989C229.787 474.493 229.796 473.996 229.805 473.497C229.815 472.998 229.824 472.498 229.833 471.997C229.843 471.496 229.852 470.993 229.862 470.488C229.871 469.984 229.881 469.478 229.89 468.971C229.899 468.464 229.909 467.956 229.918 467.446C229.928 466.936 229.938 466.425 229.947 465.912C229.957 465.399 229.966 464.885 229.976 464.369C229.986 463.854 229.995 463.337 230.005 462.818C230.015 462.3 230.024 461.78 230.034 461.258C230.044 460.737 230.054 460.214 230.063 459.69C230.073 459.166 230.083 458.64 230.093 458.113C230.103 457.586 230.112 457.057 230.122 456.527C230.132 455.997 230.142 455.466 230.152 454.933C230.162 454.4 230.172 453.866 230.182 453.33C230.192 452.794 230.202 452.257 230.212 451.718C230.222 451.179 230.232 450.639 230.242 450.097C230.253 449.556 230.263 449.013 230.273 448.468C230.283 447.923 230.293 447.377 230.303 446.83C230.314 446.282 230.324 445.733 230.334 445.183C230.344 444.632 230.355 444.08 230.365 443.527C230.375 442.974 230.386 442.419 230.396 441.862C230.407 441.306 230.417 440.748 230.427 440.189C230.438 439.629 230.448 439.068 230.459 438.506C230.469 437.944 230.48 437.38 230.49 436.815C230.501 436.249 230.512 435.682 230.522 435.114C230.533 434.546 230.543 433.976 230.554 433.405C230.565 432.833 230.576 432.26 230.586 431.686C230.597 431.112 230.608 430.536 230.619 429.959C230.629 429.381 230.64 428.802 230.651 428.222C230.662 427.642 230.673 427.06 230.684 426.476C230.694 425.893 230.705 425.308 230.716 424.721C230.727 424.135 230.738 423.547 230.749 422.958C230.76 422.368 230.771 421.777 230.782 421.184C230.793 420.592 230.805 419.998 230.816 419.402C230.827 418.806 230.838 418.209 230.849 417.611C230.86 417.012 230.871 416.412 230.883 415.81C230.894 415.208 230.905 414.605 230.917 414C230.928 413.395 230.939 412.788 230.95 412.181C230.962 411.573 230.973 410.963 230.985 410.352C230.996 409.741 231.007 409.128 231.019 408.514C231.03 407.9 231.042 407.284 231.053 406.667C231.065 406.049 231.077 405.43 231.088 404.81C231.1 404.19 231.111 403.568 231.123 402.944C231.135 402.32 231.146 401.695 231.158 401.068C231.17 400.442 231.181 399.813 231.193 399.184C231.205 398.554 231.217 397.922 231.229 397.289C231.24 396.656 231.252 396.021 231.264 395.385C231.276 394.749 231.288 394.111 231.3 393.472C231.312 392.832 231.324 392.191 231.336 391.549C231.348 390.906 231.36 390.262 231.372 389.616C231.384 388.971 231.396 388.323 231.408 387.674C231.42 387.025 231.432 386.375 231.445 385.722C231.457 385.07 231.469 384.416 231.481 383.761C231.493 383.106 231.506 382.449 231.518 381.79C231.53 381.131 231.543 380.471 231.555 379.809C231.567 379.147 231.58 378.484 231.592 377.819C231.605 377.154 231.617 376.487 231.63 375.819C231.642 375.15 231.655 374.48 231.667 373.809C231.68 373.137 231.692 372.464 231.705 371.789C231.717 371.114 231.73 370.438 231.743 369.76C231.755 369.081 231.768 368.402 231.781 367.72C231.793 367.039 231.806 366.356 231.819 365.671C231.832 364.986 231.845 364.3 231.857 363.612C231.87 362.924 231.883 362.234 231.896 361.543C231.909 360.852 231.922 360.159 231.935 359.464C231.948 358.77 231.961 358.073 231.974 357.375C231.987 356.677 232 355.978 232.013 355.276C232.026 354.575 232.039 353.872 232.053 353.168C232.066 352.463 232.079 351.757 232.092 351.049C232.105 350.341 232.119 349.631 232.132 348.92C232.145 348.209 232.158 347.496 232.172 346.781C232.185 346.066 232.198 345.35 232.212 344.632C232.225 343.914 232.239 343.194 232.252 342.473C232.266 341.752 232.279 341.028 232.293 340.304C232.306 339.579 232.32 338.852 232.333 338.124C232.347 337.396 232.361 336.666 232.374 335.935C232.388 335.203 232.402 334.47 232.415 333.735C232.429 333 232.443 332.263 232.457 331.525C232.47 330.786 232.484 330.046 232.498 329.305C232.512 328.563 232.526 327.819 232.54 327.074C232.554 326.329 232.568 325.582 232.582 324.833C232.596 324.084 232.61 323.334 232.624 322.582C232.638 321.83 232.652 321.076 232.666 320.32C232.68 319.565 232.694 318.807 232.708 318.048C232.723 317.289 232.737 316.529 232.751 315.766C232.765 315.003 232.779 314.239 232.794 313.473C232.808 312.707 232.822 311.94 232.837 311.17C232.851 310.401 232.866 309.629 232.88 308.856C232.894 308.083 232.909 307.309 232.923 306.532C232.938 305.756 232.952 304.978 232.967 304.198C232.996 302.664 233.026 301.044 233.055 299.497C233.069 298.71 233.084 297.921 233.099 297.13C233.114 296.34 233.129 295.547 233.143 294.753C233.158 293.959 233.173 293.163 233.188 292.366C233.203 291.568 233.218 290.768 233.233 289.967C233.248 289.166 233.263 288.363 233.278 287.558C233.293 286.754 233.308 285.947 233.323 285.139C233.338 284.33 233.353 283.52 233.368 282.708C233.383 281.896 233.399 281.083 233.414 280.267C233.429 279.452 233.444 278.634 233.46 277.815C233.475 276.996 233.49 276.175 233.506 275.352C233.521 274.53 233.536 273.705 233.552 272.879C233.567 272.053 233.583 271.224 233.598 270.395C233.614 269.565 233.629 268.733 233.645 267.899C233.66 267.066 233.676 266.23 233.692 265.393C233.707 264.556 233.723 263.717 233.739 262.876C233.754 262.035 233.77 261.192 233.786 260.348C233.802 259.503 233.817 258.657 233.833 257.809C233.849 256.961 233.865 256.111 233.881 255.259C233.897 254.407 233.913 253.553 233.929 252.698C233.945 251.842 233.961 250.985 233.977 250.126C233.993 249.267 234.009 248.406 234.025 247.543C234.041 246.68 234.057 245.815 234.073 244.949C234.09 244.082 234.106 243.214 234.122 242.343C234.138 241.473 234.155 240.601 234.171 239.727C234.187 238.853 234.204 237.977 234.22 237.099C234.236 236.221 234.253 235.342 234.269 234.46C234.286 233.579 234.302 232.696 234.319 231.81C234.335 230.925 234.352 230.038 234.368 229.149C234.385 228.26 234.402 227.369 234.418 226.477C234.435 225.584 234.452 224.689 234.468 223.793C234.485 222.897 234.502 221.998 234.519 221.098C234.536 220.198 234.552 219.296 234.569 218.392C234.586 217.488 234.603 216.582 234.62 215.674C234.637 214.766 234.654 213.856 234.671 212.945C234.688 212.033 234.705 211.12 234.722 210.204C234.739 209.289 234.756 208.372 234.774 207.452C234.791 206.533 234.808 205.612 234.825 204.689C234.842 203.766 234.86 202.841 234.877 201.914C234.894 200.987 234.912 200.059 234.929 199.128C234.946 198.197 234.964 197.265 234.981 196.33C234.999 195.396 235.016 194.459 235.034 193.521C235.051 192.582 235.069 191.642 235.086 190.7C235.104 189.758 235.122 188.814 235.139 187.867C235.157 186.921 235.175 185.973 235.192 185.023C235.21 184.073 235.228 183.121 235.246 182.168C235.264 181.214 235.281 180.258 235.299 179.3C235.317 178.342 235.335 177.383 235.353 176.421C235.371 175.46 235.389 174.496 235.407 173.53C235.425 172.565 235.443 171.597 235.461 170.628C235.479 169.658 235.498 168.687 235.516 167.714C235.534 166.74 235.552 165.765 235.57 164.788C235.589 163.81 235.607 162.831 235.625 161.85C235.644 160.869 235.662 159.885 235.68 158.9C235.699 157.915 235.717 156.928 235.736 155.939C235.754 154.949 235.773 153.958 235.791 152.965C235.81 151.972 235.828 150.977 235.847 149.98C235.865 148.983 235.884 147.984 235.903 146.983C235.922 145.982 235.94 144.979 235.959 143.974C235.978 142.969 235.997 141.962 236.015 140.953C236.034 139.944 236.053 138.933 236.072 137.92C236.091 136.907 236.11 135.892 236.129 134.874C236.148 133.857 236.167 132.838 236.186 131.817C236.205 130.796 236.224 129.773 236.243 128.748C236.262 127.723 236.282 126.696 236.301 125.667C236.32 124.638 236.339 123.607 236.359 122.574C236.378 121.54 236.397 120.505 236.417 119.468L235.417 119.449C235.397 120.487 235.378 121.522 235.359 122.555C235.34 123.588 235.32 124.619 235.301 125.648C235.282 126.677 235.263 127.704 235.244 128.73C235.224 129.755 235.205 130.778 235.186 131.799C235.167 132.82 235.148 133.839 235.129 134.856C235.11 135.873 235.091 136.888 235.072 137.901C235.053 138.914 235.034 139.925 235.016 140.934C234.997 141.943 234.978 142.95 234.959 143.955C234.94 144.96 234.922 145.963 234.903 146.964C234.884 147.965 234.866 148.964 234.847 149.961C234.828 150.958 234.81 151.953 234.791 152.947C234.773 153.94 234.754 154.931 234.736 155.92C234.717 156.909 234.699 157.896 234.68 158.881C234.662 159.867 234.644 160.85 234.625 161.831C234.607 162.812 234.589 163.792 234.571 164.769C234.552 165.746 234.534 166.722 234.516 167.695C234.498 168.668 234.48 169.64 234.461 170.609C234.443 171.579 234.425 172.546 234.407 173.512C234.389 174.477 234.371 175.441 234.353 176.402C234.335 177.364 234.317 178.324 234.3 179.282C234.282 180.239 234.264 181.195 234.246 182.149C234.228 183.103 234.21 184.055 234.193 185.005C234.175 185.955 234.157 186.903 234.14 187.849C234.122 188.795 234.104 189.739 234.087 190.681C234.069 191.623 234.051 192.564 234.034 193.502C234.016 194.441 233.999 195.377 233.981 196.312C233.964 197.246 233.947 198.179 233.929 199.109C233.912 200.04 233.895 200.969 233.877 201.896C233.86 202.822 233.843 203.747 233.825 204.67C233.808 205.593 233.791 206.515 233.774 207.434C233.757 208.353 233.739 209.27 233.722 210.186C233.705 211.101 233.688 212.015 233.671 212.926C233.654 213.838 233.637 214.747 233.62 215.655C233.603 216.563 233.586 217.469 233.57 218.373C233.553 219.277 233.536 220.179 233.519 221.079C233.502 221.98 233.485 222.878 233.469 223.774C233.452 224.671 233.435 225.565 233.419 226.458C233.402 227.351 233.385 228.242 233.369 229.131C233.352 230.02 233.335 230.907 233.319 231.792C233.302 232.677 233.286 233.56 233.269 234.442C233.253 235.323 233.237 236.203 233.22 237.081C233.204 237.958 233.187 238.834 233.171 239.708C233.155 240.582 233.138 241.454 233.122 242.325C233.106 243.195 233.09 244.063 233.074 244.93C233.057 245.796 233.041 246.661 233.025 247.524C233.009 248.387 232.993 249.248 232.977 250.107C232.961 250.966 232.945 251.824 232.929 252.679C232.913 253.535 232.897 254.388 232.881 255.24C232.865 256.092 232.849 256.942 232.833 257.79C232.818 258.638 232.802 259.485 232.786 260.329C232.77 261.174 232.755 262.016 232.739 262.857C232.723 263.698 232.707 264.537 232.692 265.374C232.676 266.212 232.661 267.047 232.645 267.881C232.629 268.714 232.614 269.546 232.598 270.376C232.583 271.206 232.567 272.034 232.552 272.86C232.537 273.687 232.521 274.511 232.506 275.334C232.49 276.157 232.475 276.977 232.46 277.797C232.445 278.616 232.429 279.433 232.414 280.248C232.399 281.064 232.384 281.878 232.368 282.69C232.353 283.502 232.338 284.312 232.323 285.12C232.308 285.928 232.293 286.735 232.278 287.54C232.263 288.344 232.248 289.147 232.233 289.949C232.218 290.75 232.203 291.549 232.188 292.347C232.173 293.145 232.158 293.94 232.144 294.735C232.129 295.529 232.114 296.321 232.099 297.111C232.084 297.902 232.07 298.691 232.055 299.478C232.04 300.265 232.026 301.05 232.011 301.834C231.996 302.617 231.982 303.399 231.967 304.179C231.953 304.959 231.938 305.737 231.924 306.514C231.909 307.29 231.895 308.065 231.88 308.838C231.866 309.611 231.851 310.382 231.837 311.151C231.823 311.921 231.808 312.689 231.794 313.455C231.78 314.221 231.765 314.985 231.751 315.747C231.737 316.51 231.723 317.271 231.709 318.03C231.694 318.789 231.68 319.546 231.666 320.302C231.652 321.057 231.638 321.811 231.624 322.563C231.61 323.315 231.596 324.066 231.582 324.814C231.568 325.563 231.554 326.31 231.54 327.055C231.526 327.8 231.512 328.544 231.498 329.286C231.484 330.028 231.471 330.768 231.457 331.506C231.443 332.245 231.429 332.981 231.416 333.716C231.402 334.451 231.388 335.184 231.374 335.916C231.361 336.648 231.347 337.377 231.334 338.106C231.32 338.834 231.306 339.56 231.293 340.285C231.279 341.01 231.266 341.733 231.252 342.454C231.239 343.176 231.225 343.895 231.212 344.613C231.199 345.331 231.185 346.048 231.172 346.762C231.159 347.477 231.145 348.19 231.132 348.901C231.119 349.613 231.105 350.322 231.092 351.03C231.079 351.738 231.066 352.444 231.053 353.149C231.04 353.854 231.026 354.557 231.013 355.258C231 355.959 230.987 356.659 230.974 357.357C230.961 358.055 230.948 358.751 230.935 359.445C230.922 360.14 230.909 360.833 230.896 361.524C230.883 362.216 230.87 362.905 230.858 363.593C230.845 364.281 230.832 364.968 230.819 365.652C230.806 366.337 230.794 367.02 230.781 367.702C230.768 368.383 230.756 369.063 230.743 369.741C230.73 370.419 230.718 371.096 230.705 371.77C230.692 372.445 230.68 373.118 230.667 373.79C230.655 374.462 230.642 375.132 230.63 375.8C230.617 376.468 230.605 377.135 230.592 377.8C230.58 378.465 230.568 379.129 230.555 379.791C230.543 380.452 230.53 381.113 230.518 381.771C230.506 382.43 230.494 383.087 230.481 383.742C230.469 384.398 230.457 385.052 230.445 385.704C230.433 386.356 230.42 387.007 230.408 387.656C230.396 388.304 230.384 388.952 230.372 389.598C230.36 390.243 230.348 390.888 230.336 391.53C230.324 392.173 230.312 392.814 230.3 393.453C230.288 394.093 230.276 394.73 230.264 395.367C230.252 396.003 230.241 396.637 230.229 397.27C230.217 397.904 230.205 398.535 230.193 399.165C230.182 399.795 230.17 400.423 230.158 401.05C230.146 401.677 230.135 402.302 230.123 402.925C230.112 403.549 230.1 404.171 230.088 404.791C230.077 405.412 230.065 406.031 230.054 406.648C230.042 407.265 230.031 407.881 230.019 408.495C230.008 409.109 229.996 409.722 229.985 410.333C229.973 410.944 229.962 411.554 229.951 412.162C229.939 412.77 229.928 413.376 229.917 413.981C229.905 414.586 229.894 415.189 229.883 415.791C229.872 416.393 229.86 416.993 229.849 417.592C229.838 418.191 229.827 418.788 229.816 419.383C229.805 419.979 229.794 420.573 229.783 421.166C229.771 421.758 229.76 422.349 229.749 422.939C229.738 423.528 229.727 424.116 229.716 424.703C229.706 425.289 229.695 425.874 229.684 426.458C229.673 427.041 229.662 427.623 229.651 428.203C229.64 428.784 229.629 429.363 229.619 429.94C229.608 430.517 229.597 431.093 229.586 431.667C229.576 432.242 229.565 432.815 229.554 433.386C229.544 433.957 229.533 434.527 229.522 435.095C229.512 435.664 229.501 436.231 229.491 436.796C229.48 437.361 229.47 437.925 229.459 438.487C229.449 439.05 229.438 439.611 229.428 440.17C229.417 440.729 229.407 441.287 229.396 441.844C229.386 442.4 229.376 442.955 229.365 443.508C229.355 444.062 229.345 444.614 229.334 445.164C229.324 445.715 229.314 446.264 229.304 446.811C229.293 447.359 229.283 447.905 229.273 448.449C229.263 448.994 229.253 449.537 229.243 450.079C229.232 450.62 229.222 451.161 229.212 451.699C229.202 452.238 229.192 452.775 229.182 453.311C229.172 453.847 229.162 454.381 229.152 454.914C229.142 455.447 229.132 455.979 229.123 456.509C229.113 457.039 229.103 457.567 229.093 458.094C229.083 458.621 229.073 459.147 229.063 459.671C229.054 460.195 229.044 460.718 229.034 461.24C229.024 461.761 229.015 462.281 229.005 462.799C228.995 463.318 228.986 463.835 228.976 464.351C228.966 464.866 228.957 465.38 228.947 465.893C228.938 466.406 228.928 466.917 228.919 467.427C228.909 467.937 228.9 468.446 228.89 468.953C228.881 469.46 228.871 469.965 228.862 470.47C228.852 470.974 228.843 471.477 228.834 471.978C228.824 472.48 228.815 472.98 228.806 473.478C228.796 473.977 228.787 474.474 228.778 474.97C228.769 475.466 228.759 475.96 228.75 476.453C228.741 476.946 228.732 477.438 228.723 477.928C228.713 478.418 228.704 478.907 228.695 479.395C228.686 479.882 228.677 480.368 228.668 480.853C228.659 481.338 228.65 481.821 228.641 482.303C228.632 482.785 228.623 483.265 228.614 483.744C228.605 484.224 228.596 484.701 228.587 485.178C228.578 485.654 228.569 486.129 228.561 486.603C228.552 487.077 228.543 487.549 228.534 488.02C228.525 488.491 228.517 488.96 228.508 489.428C228.499 489.897 228.49 490.363 228.482 490.829C228.473 491.294 228.464 491.759 228.456 492.221C228.447 492.684 228.438 493.146 228.43 493.606C228.421 494.066 228.413 494.524 228.404 494.982C228.396 495.439 228.387 495.895 228.379 496.35C228.37 496.805 228.362 497.258 228.353 497.71C228.345 498.162 228.336 498.613 228.328 499.062C228.319 499.511 228.311 499.959 228.303 500.406C228.294 500.853 228.286 501.298 228.278 501.742C228.27 502.186 228.261 502.629 228.253 503.07C228.245 503.512 228.237 503.952 228.228 504.39C228.22 504.829 228.212 505.267 228.204 505.703C228.196 506.139 228.188 506.574 228.18 507.007C228.171 507.441 228.163 507.873 228.155 508.304C228.147 508.734 228.139 509.164 228.131 509.592C228.123 510.021 228.115 510.447 228.107 510.873C228.099 511.299 228.091 511.723 228.084 512.146C228.076 512.569 228.068 512.991 228.06 513.412C228.052 513.832 228.044 514.251 228.036 514.669C228.029 515.087 228.021 515.504 228.013 515.919C228.005 516.334 227.998 516.748 227.99 517.161C227.982 517.574 227.975 517.986 227.967 518.396C227.959 518.806 227.952 519.215 227.944 519.623C227.936 520.03 227.929 520.437 227.921 520.842C227.914 521.247 227.906 521.651 227.899 522.054C227.891 522.456 227.884 522.858 227.876 523.258C227.869 523.658 227.861 524.057 227.854 524.454C227.846 524.852 227.839 525.248 227.832 525.643C227.824 526.038 227.817 526.432 227.809 526.825C227.802 527.217 227.795 527.609 227.788 527.999C227.772 528.815 227.759 529.518 227.744 530.325C227.737 530.71 227.73 531.094 227.723 531.476C227.715 531.859 227.708 532.24 227.701 532.621C227.694 533.001 227.687 533.38 227.68 533.758C227.673 534.135 227.666 534.512 227.659 534.887C227.652 535.263 227.645 535.637 227.638 536.01C227.631 536.383 227.624 536.754 227.617 537.125C227.61 537.495 227.603 537.864 227.596 538.233C227.59 538.601 227.583 538.967 227.576 539.333C227.569 539.699 227.562 540.063 227.555 540.426C227.549 540.79 227.542 541.152 227.535 541.513C227.528 541.873 227.522 542.233 227.515 542.592C227.508 542.95 227.502 543.307 227.495 543.663C227.488 544.019 227.482 544.374 227.475 544.728C227.469 545.082 227.462 545.434 227.455 545.786C227.449 546.137 227.442 546.487 227.436 546.836C227.429 547.185 227.423 547.533 227.416 547.88C227.41 548.226 227.403 548.572 227.397 548.916C227.39 549.261 227.384 549.604 227.378 549.946C227.371 550.288 227.365 550.629 227.359 550.968C227.352 551.308 227.346 551.646 227.34 551.984C227.333 552.321 227.327 552.657 227.321 552.992C227.315 553.327 227.308 553.661 227.302 553.994C227.296 554.327 227.29 554.658 227.284 554.989C227.277 555.319 227.271 555.649 227.265 555.977C227.259 556.305 227.253 556.632 227.247 556.958C227.241 557.284 227.235 557.608 227.229 557.932C227.222 558.256 227.216 558.578 227.21 558.9C227.204 559.221 227.198 559.541 227.193 559.86C227.187 560.18 227.181 560.497 227.175 560.814C227.169 561.131 227.163 561.447 227.157 561.762C227.151 562.076 227.145 562.39 227.139 562.702C227.134 563.015 227.128 563.326 227.122 563.636C227.116 563.946 227.11 564.255 227.105 564.563C227.099 564.871 227.093 565.178 227.088 565.484C227.082 565.79 227.076 566.095 227.07 566.398C227.065 566.702 227.059 567.004 227.053 567.306C227.031 568.506 227.009 569.704 226.987 570.87C226.981 571.163 226.976 571.454 226.971 571.745C226.965 572.036 226.96 572.325 226.954 572.614C226.949 572.902 226.944 573.189 226.938 573.476C226.933 573.762 226.928 574.047 226.922 574.331C226.917 574.616 226.912 574.899 226.906 575.181C226.901 575.463 226.896 575.744 226.891 576.024C226.885 576.304 226.88 576.583 226.875 576.86C226.87 577.138 226.865 577.415 226.86 577.691C226.854 577.967 226.849 578.241 226.844 578.515C226.839 578.789 226.834 579.061 226.829 579.333C226.824 579.604 226.819 579.875 226.814 580.145C226.809 580.414 226.804 580.683 226.799 580.95C226.794 581.218 226.789 581.484 226.784 581.749C226.779 582.015 226.774 582.279 226.769 582.543C226.764 582.806 226.759 583.068 226.754 583.33C226.749 583.591 226.745 583.851 226.74 584.111C226.735 584.37 226.73 584.628 226.725 584.885C226.72 585.143 226.716 585.399 226.711 585.654C226.706 585.909 226.701 586.164 226.697 586.417C226.692 586.67 226.687 586.922 226.682 587.174C226.678 587.425 226.673 587.675 226.668 587.924C226.664 588.174 226.659 588.422 226.655 588.669C226.65 588.917 226.645 589.163 226.641 589.408C226.636 589.654 226.632 589.898 226.627 590.141C226.623 590.385 226.618 590.627 226.613 590.868C226.609 591.11 226.604 591.35 226.6 591.59C226.596 591.829 226.591 592.067 226.587 592.305C226.582 592.542 226.578 592.779 226.573 593.014C226.569 593.25 226.565 593.485 226.56 593.718C226.556 593.952 226.552 594.185 226.547 594.416C226.543 594.648 226.539 594.879 226.534 595.109C226.53 595.338 226.526 595.567 226.521 595.795C226.517 596.023 226.513 596.25 226.509 596.476C226.505 596.702 226.5 596.927 226.496 597.151C226.492 597.375 226.488 597.598 226.484 597.821C226.48 598.043 226.475 598.264 226.471 598.485C226.467 598.705 226.463 598.924 226.459 599.143C226.455 599.361 226.451 599.579 226.447 599.796C226.443 600.012 226.439 600.228 226.435 600.443C226.431 600.658 226.427 600.871 226.423 601.084C226.419 601.297 226.415 601.509 226.411 601.72C226.407 601.932 226.403 602.142 226.399 602.351C226.395 602.56 226.391 602.769 226.387 602.976C226.384 603.184 226.38 603.39 226.376 603.596C226.372 603.802 226.368 604.007 226.364 604.21C226.361 604.414 226.357 604.617 226.353 604.819C226.349 605.021 226.345 605.223 226.342 605.423C226.338 605.623 226.334 605.823 226.331 606.021C226.327 606.22 226.323 606.417 226.319 606.614C226.316 606.811 226.312 607.007 226.308 607.202C226.305 607.397 226.301 607.591 226.298 607.784C226.294 607.977 226.29 608.17 226.287 608.361C226.283 608.553 226.28 608.743 226.276 608.933C226.273 609.123 226.269 609.312 226.266 609.5C226.262 609.688 226.259 609.875 226.255 610.061C226.252 610.248 226.248 610.433 226.245 610.618C226.241 610.802 226.238 610.986 226.234 611.169C226.231 611.352 226.228 611.534 226.224 611.715C226.221 611.896 226.217 612.077 226.214 612.256C226.211 612.436 226.207 612.614 226.204 612.792C226.201 612.97 226.197 613.147 226.194 613.323C226.191 613.499 226.188 613.674 226.184 613.849C226.181 614.023 226.178 614.197 226.175 614.37C226.171 614.543 226.168 614.715 226.165 614.886C226.162 615.057 226.159 615.227 226.155 615.397C226.152 615.566 226.149 615.735 226.146 615.903C226.143 616.071 226.14 616.238 226.137 616.404C226.134 616.571 226.13 616.736 226.127 616.901C226.124 617.065 226.121 617.229 226.118 617.392C226.115 617.555 226.112 617.718 226.109 617.879C226.106 618.04 226.103 618.201 226.1 618.361C226.097 618.521 226.094 618.68 226.091 618.838C226.088 618.996 226.085 619.154 226.082 619.311C226.079 619.467 226.077 619.623 226.074 619.778C226.071 619.933 226.068 620.088 226.065 620.241C226.062 620.395 226.059 620.548 226.056 620.7C226.054 620.852 226.051 621.003 226.048 621.153C226.045 621.304 226.042 621.453 226.04 621.602C226.037 621.751 226.034 621.899 226.031 622.047C226.029 622.194 226.026 622.341 226.023 622.487C226.02 622.632 226.018 622.777 226.015 622.922C226.012 623.066 226.01 623.21 226.007 623.353C226.004 623.495 226.002 623.637 225.999 623.779C225.996 623.92 225.994 624.061 225.991 624.201C225.988 624.34 225.986 624.48 225.983 624.618C225.981 624.756 225.978 624.894 225.976 625.031C225.973 625.168 225.97 625.304 225.968 625.439C225.965 625.575 225.963 625.709 225.96 625.843C225.958 625.977 225.955 626.11 225.953 626.243C225.95 626.375 225.948 626.507 225.946 626.638C225.943 626.769 225.941 626.9 225.938 627.029C225.936 627.159 225.933 627.288 225.931 627.416C225.929 627.544 225.926 627.672 225.924 627.798C225.921 627.925 225.919 628.051 225.917 628.177C225.912 628.455 225.908 628.647 225.903 628.92C225.901 629.043 225.898 629.165 225.896 629.286C225.894 629.407 225.892 629.528 225.889 629.647C225.887 629.767 225.885 629.886 225.883 630.005C225.88 630.123 225.878 630.241 225.876 630.358C225.874 630.475 225.872 630.591 225.87 630.707C225.867 630.823 225.865 630.938 225.863 631.052C225.861 631.166 225.859 631.28 225.857 631.393C225.855 631.506 225.853 631.618 225.85 631.73C225.848 631.842 225.846 631.953 225.844 632.063C225.842 632.173 225.84 632.283 225.838 632.392C225.836 632.501 225.834 632.61 225.832 632.717C225.83 632.825 225.828 632.932 225.826 633.038C225.824 633.145 225.822 633.251 225.82 633.356C225.818 633.461 225.816 633.565 225.814 633.669C225.812 633.773 225.81 633.876 225.808 633.979C225.807 634.081 225.805 634.183 225.803 634.285C225.772 635.937 225.746 637.332 225.721 638.676C225.719 638.758 225.718 638.84 225.716 638.921C225.715 639.002 225.713 639.082 225.712 639.162C225.71 639.242 225.709 639.321 225.707 639.4C225.706 639.478 225.704 639.556 225.703 639.634C225.697 639.952 225.692 640.238 225.686 640.538C225.685 640.611 225.683 640.684 225.682 640.756C225.681 640.828 225.679 640.9 225.678 640.971C225.677 641.042 225.675 641.112 225.674 641.182C225.673 641.252 225.671 641.322 225.67 641.391C225.669 641.46 225.667 641.528 225.666 641.596C225.665 641.664 225.664 641.731 225.662 641.798C225.661 641.865 225.66 641.931 225.659 641.997C225.657 642.063 225.656 642.128 225.655 642.193C225.654 642.258 225.653 642.322 225.651 642.386C225.65 642.45 225.649 642.513 225.648 642.576C225.647 642.639 225.646 642.701 225.644 642.763C225.643 642.825 225.642 642.886 225.641 642.947C225.64 643.008 225.639 643.068 225.638 643.128C225.636 643.188 225.635 643.247 225.634 643.306C225.633 643.365 225.632 643.423 225.631 643.481C225.63 643.539 225.629 643.597 225.628 643.654C225.62 644.071 225.611 644.573 225.604 644.932C225.603 644.982 225.602 645.031 225.601 645.08C225.6 645.128 225.599 645.177 225.598 645.224C225.598 645.272 225.597 645.32 225.596 645.367C225.595 645.414 225.594 645.46 225.593 645.507C225.592 645.553 225.591 645.598 225.591 645.644C225.59 645.689 225.589 645.734 225.588 645.778C225.587 645.823 225.586 645.867 225.586 645.91C225.585 645.954 225.584 645.997 225.583 646.04C225.582 646.083 225.582 646.125 225.581 646.167C225.58 646.209 225.579 646.251 225.578 646.292C225.577 646.375 225.575 646.454 225.574 646.534C225.573 646.574 225.573 646.613 225.572 646.652C225.571 646.69 225.57 646.729 225.57 646.767C225.569 646.805 225.568 646.842 225.568 646.88C225.567 646.917 225.566 646.954 225.565 646.99C225.565 647.027 225.564 647.063 225.563 647.098C225.563 647.134 225.562 647.169 225.561 647.204C225.561 647.239 225.56 647.274 225.56 647.308C225.559 647.342 225.558 647.376 225.558 647.41C225.557 647.443 225.556 647.476 225.556 647.509C225.555 647.542 225.555 647.574 225.554 647.606C225.552 647.709 225.552 647.694 225.55 647.794C225.549 647.85 225.548 647.921 225.547 647.974C225.547 648.003 225.546 648.032 225.545 648.061C225.545 648.089 225.544 648.118 225.544 648.146C225.542 648.265 225.54 648.356 225.538 648.465C225.537 648.531 225.536 648.549 225.535 648.613C225.535 648.637 225.534 648.661 225.534 648.684C225.533 648.708 225.533 648.731 225.533 648.754C225.53 648.863 225.53 648.914 225.528 649.014C225.527 649.034 225.527 649.055 225.527 649.075C225.526 649.094 225.526 649.114 225.525 649.134C225.524 649.193 225.524 649.189 225.523 649.247C225.523 649.265 225.523 649.283 225.522 649.301C225.522 649.318 225.522 649.336 225.521 649.353C225.521 649.37 225.521 649.387 225.52 649.404C225.52 649.421 225.52 649.437 225.519 649.453C225.518 649.511 225.519 649.492 225.518 649.548C225.517 649.585 225.517 649.601 225.516 649.636C225.516 649.65 225.516 649.664 225.515 649.678C225.515 649.692 225.515 649.705 225.515 649.719C225.514 649.729 225.513 649.788 225.513 649.796C225.513 649.808 225.513 649.82 225.512 649.832C225.512 649.844 225.512 649.856 225.512 649.868C225.512 649.879 225.511 649.891 225.511 649.902C225.511 649.913 225.511 649.924 225.51 649.934C225.51 649.945 225.51 649.956 225.51 649.966C225.51 649.976 225.51 649.986 225.509 649.996C225.509 650.01 225.508 650.041 225.508 650.053C225.508 650.062 225.508 650.071 225.508 650.08C225.508 650.089 225.507 650.097 225.507 650.106C225.507 650.114 225.507 650.122 225.507 650.13C225.507 650.138 225.507 650.146 225.506 650.154C225.506 650.161 225.506 650.192 225.506 650.198C225.505 650.205 225.505 650.211 225.505 650.218C225.505 650.225 225.505 650.231 225.505 650.237C225.504 650.268 225.504 650.28 225.504 650.306C225.503 650.312 225.503 650.33 225.503 650.335C225.503 650.348 225.503 650.349 225.503 650.361C225.501 650.421 225.501 650.463 225.5 650.474C225.5 650.478 225.5 650.477 225.5 650.48C225.5 650.484 225.5 650.48 225.5 650.484C225.5 650.486 225.5 650.485 225.5 650.487C225.5 650.487 225.5 650.487 225.5 650.488C225.5 650.488 225.5 650.488 225.5 650.489C225.5 650.49 225.5 650.49 225.5 650.49C225.5 650.49 225.5 650.491 225.5 650.491C225.5 650.491 225.5 650.491 225.5 650.491C225.5 650.491 225.5 650.491 225.5 650.491C225.5 650.491 226 650.5 226 650.5Z" fill="#0088FF"/>
<path d="M124 3.00004L119.988 -1.15168L118.399 4.39872L124 3.00004ZM4.00004 650C4.1155 650 4.16206 650.064 4.13683 650.037C4.11203 650.01 4.0629 649.941 3.99858 649.801C3.87141 649.524 3.73399 649.079 3.59315 648.449C3.3133 647.198 3.04236 645.322 2.78625 642.851C2.27463 637.915 1.82833 630.668 1.47653 621.442C0.773058 602.994 0.448553 576.664 0.72999 545.151C1.29286 482.126 4.2793 398.388 11.5015 315.539C18.7244 232.683 30.1814 150.745 47.6767 91.3046C56.4261 61.5786 66.6728 37.526 78.6236 21.7991C90.5676 6.08118 104.135 -1.23236 119.578 2.25288L119.798 1.27741C103.819 -2.32863 89.8959 5.31234 77.8274 21.1941C65.7657 37.0668 55.4778 61.259 46.7174 91.0223C29.1931 150.561 17.7296 232.579 10.5053 315.452C3.28037 398.332 0.29308 482.097 -0.26997 545.142C-0.551493 576.664 -0.227006 603.011 0.477261 621.48C0.829334 630.714 1.2766 637.986 1.79158 642.954C2.04876 645.436 2.32439 647.358 2.61727 648.668C2.7628 649.318 2.91829 649.844 3.08969 650.218C3.17466 650.403 3.27623 650.579 3.40343 650.717C3.53021 650.853 3.73008 651 4.00004 651V650Z" fill="#0088FF"/>
<path d="M348 3L346.986 8.68378L352.415 6.71995L348 3ZM369 474.5C369.082 474.5 369.058 474.553 368.94 474.396C368.831 474.25 368.702 474 368.562 473.619C368.284 472.864 368.006 471.714 367.73 470.176C367.181 467.107 366.662 462.583 366.17 456.789C365.186 445.206 364.314 428.599 363.519 408.512C361.93 368.342 360.651 314.29 359.403 258.761C358.154 203.234 356.936 146.231 355.467 100.168C354.733 77.1361 353.936 56.8363 353.041 40.8214C352.147 24.8189 351.154 13.0621 350.022 7.1384L349.04 7.32608C350.157 13.1728 351.148 24.8616 352.043 40.8771C352.937 56.8802 353.733 77.1708 354.468 100.2C355.936 146.257 357.154 203.253 358.403 258.783C359.652 314.31 360.931 368.372 362.52 408.552C363.315 428.641 364.188 445.267 365.174 456.874C365.667 462.675 366.189 467.236 366.746 470.352C367.024 471.906 367.315 473.125 367.624 473.964C367.777 474.381 367.946 474.735 368.139 474.994C368.324 475.241 368.607 475.5 369 475.5V474.5Z" fill="#0088FF"/>
<path d="M348 3.00012L347.285 8.72917L352.604 6.4839L348 3.00012ZM349 475.5C349.398 475.5 349.673 475.225 349.844 474.983C350.027 474.724 350.186 474.37 350.331 473.954C350.623 473.115 350.897 471.895 351.158 470.339C351.682 467.218 352.169 462.651 352.619 456.84C353.52 445.215 354.279 428.562 354.895 408.444C356.128 368.204 356.791 314.07 356.871 258.488C356.951 202.905 356.448 145.87 355.348 99.8255C354.798 76.8036 354.099 56.5268 353.249 40.552C352.4 24.5903 351.399 12.8897 350.238 7.04311L349.257 7.23784C350.402 13.0024 351.401 24.6308 352.251 40.6051C353.1 56.5662 353.799 76.8323 354.348 99.8494C355.448 145.883 355.951 202.91 355.871 258.486C355.791 314.063 355.129 368.186 353.896 408.413C353.279 428.528 352.521 445.161 351.622 456.763C351.172 462.566 350.688 467.098 350.172 470.173C349.913 471.715 349.65 472.867 349.386 473.626C349.254 474.008 349.131 474.26 349.027 474.406C348.912 474.569 348.897 474.5 349 474.5V475.5Z" fill="#0088FF"/>
<path d="M124 3L120.259 7.39774L125.938 8.43846L124 3ZM124.955 474.502C125.009 474.497 124.987 474.537 124.879 474.416C124.77 474.295 124.637 474.075 124.489 473.725C124.195 473.029 123.899 471.951 123.607 470.488C123.025 467.574 122.48 463.244 121.973 457.671C120.961 446.532 120.108 430.487 119.414 411.002C118.026 372.037 117.273 319.344 117.142 264.692C117.01 210.04 117.499 153.433 118.595 106.637C119.692 59.8257 121.395 22.8699 123.684 7.49536L122.695 7.34806C120.394 22.7973 118.691 59.8223 117.596 106.613C116.499 153.42 116.01 210.036 116.142 264.695C116.273 319.352 117.026 372.057 118.415 411.038C119.109 430.527 119.962 446.594 120.977 457.762C121.485 463.343 122.033 467.715 122.626 470.684C122.922 472.164 123.233 473.323 123.567 474.114C123.733 474.506 123.918 474.842 124.134 475.083C124.349 475.324 124.657 475.533 125.045 475.498L124.955 474.502Z" fill="#0088FF"/>
<path d="M124 3L119.787 6.94741L125.312 8.62247L124 3ZM106 475.5C106.406 475.5 106.668 475.195 106.815 474.965C106.98 474.708 107.124 474.357 107.254 473.944C107.518 473.11 107.766 471.897 108.005 470.346C108.482 467.237 108.929 462.684 109.352 456.89C110.197 445.299 110.945 428.693 111.626 408.627C112.989 368.491 114.085 314.483 115.156 258.995C116.226 203.504 117.271 146.531 118.53 100.46C119.79 54.3659 121.264 19.2364 123.186 7.39254L122.199 7.23234C120.263 19.1601 118.789 54.3774 117.531 100.432C116.271 146.509 115.226 203.487 114.156 258.975C113.086 314.466 111.989 368.466 110.627 408.593C109.946 428.657 109.198 445.247 108.354 456.818C107.932 462.605 107.487 467.126 107.016 470.194C106.78 471.732 106.54 472.884 106.301 473.643C106.18 474.026 106.068 474.278 105.974 474.425C105.862 474.6 105.861 474.5 106 474.5V475.5Z" fill="#0088FF"/>
<path d="M348 3L347.3 8.7309L352.613 6.47176L348 3ZM368 298.5C368 298.5 367.994 298.5 367.979 298.494C367.963 298.487 367.934 298.471 367.894 298.436C367.811 298.364 367.704 298.233 367.581 298.018C367.335 297.586 367.08 296.913 366.823 295.985C366.311 294.137 365.824 291.4 365.36 287.873C364.433 280.827 363.609 270.709 362.858 258.439C361.356 233.903 360.145 200.809 358.969 166.58C357.792 132.354 356.65 96.9949 355.284 67.9385C353.92 38.9069 352.331 16.1024 350.249 7.03072L349.274 7.2544C351.331 16.2172 352.919 38.9122 354.285 67.9854C355.651 97.0337 356.793 132.384 357.969 166.614C359.146 200.841 360.357 233.948 361.86 258.5C362.611 270.774 363.436 280.921 364.368 288.004C364.834 291.542 365.328 294.335 365.859 296.252C366.124 297.207 366.405 297.974 366.712 298.513C366.995 299.009 367.407 299.5 368 299.5V298.5Z" fill="#0088FF"/>
<path d="M348 3.00008L347.848 8.77158L352.922 6.01749L348 3.00008ZM349 299.5C349.3 299.5 349.556 299.368 349.759 299.19C349.959 299.015 350.131 298.777 350.283 298.507C350.586 297.966 350.865 297.196 351.125 296.237C351.648 294.312 352.131 291.506 352.577 287.953C353.47 280.84 354.225 270.651 354.841 258.329C356.072 233.681 356.751 200.457 356.863 166.141C356.975 131.824 356.521 96.4087 355.489 67.3758C354.973 52.8596 354.312 39.9355 353.504 29.5406C352.697 19.1577 351.742 11.2644 350.63 6.83054L349.66 7.07387C350.749 11.4156 351.7 19.2305 352.507 29.6181C353.313 39.9937 353.974 52.9025 354.49 67.4113C355.521 96.4282 355.975 131.831 355.863 166.138C355.751 200.446 355.073 233.653 353.842 258.279C353.226 270.594 352.473 280.753 351.585 287.829C351.14 291.37 350.664 294.119 350.16 295.975C349.907 296.907 349.654 297.583 349.411 298.017C349.289 298.234 349.183 298.365 349.1 298.438C349.061 298.472 349.033 298.488 349.017 298.495C349.009 298.498 349.005 298.499 349.003 298.5C349.001 298.5 349 298.5 349 298.5V299.5Z" fill="#0088FF"/>
<path d="M124 3L119.245 6.27477L124.459 8.75526L124 3ZM124 298.5C124 298.5 123.999 298.5 123.997 298.5C123.995 298.499 123.99 298.498 123.982 298.495C123.967 298.488 123.939 298.472 123.899 298.438C123.817 298.365 123.71 298.234 123.588 298.018C123.345 297.585 123.092 296.91 122.839 295.98C122.334 294.128 121.858 291.385 121.412 287.851C120.522 280.789 119.765 270.65 119.143 258.357C117.9 233.774 117.197 200.622 117.036 166.355C116.875 132.088 117.255 96.7131 118.176 67.6862C119.098 38.6344 120.562 16.0019 122.553 7.17617L121.578 6.95605C119.56 15.8957 118.098 38.6377 117.177 67.6545C116.255 96.6962 115.875 132.084 116.036 166.359C116.197 200.634 116.9 233.803 118.144 258.407C118.767 270.707 119.525 280.876 120.42 287.976C120.867 291.522 121.351 294.322 121.874 296.243C122.135 297.2 122.413 297.969 122.717 298.509C122.869 298.779 123.041 299.016 123.241 299.191C123.445 299.368 123.7 299.5 124 299.5V298.5Z" fill="#0088FF"/>
<g filter="url(#filter0_d_167_356)">
<path d="M124 3L119.54 6.66677L124.946 8.69552L124 3ZM106 299.5C106.302 299.5 106.55 299.354 106.736 299.176C106.92 298.999 107.076 298.762 107.213 298.495C107.488 297.959 107.741 297.195 107.978 296.244C108.456 294.333 108.901 291.546 109.319 288.013C110.158 280.942 110.901 270.81 111.577 258.552C112.93 234.032 114.02 200.963 115.079 166.764C116.138 132.563 117.166 97.2302 118.395 68.1732C119.626 39.0941 121.056 16.3583 122.909 7.31164L121.93 7.11093C120.056 16.2554 118.625 39.0888 117.396 68.1309C116.167 97.1952 115.138 132.536 114.079 166.734C113.02 200.934 111.931 233.991 110.579 258.497C109.902 270.751 109.161 280.857 108.326 287.896C107.909 291.418 107.47 294.154 107.008 296.002C106.777 296.93 106.546 297.605 106.324 298.038C106.212 298.255 106.116 298.385 106.044 298.454C105.974 298.521 105.962 298.5 106 298.5V299.5Z" fill="#0088FF"/>
</g>
<defs>
<filter id="filter0_d_167_356" x="101.979" y="3" width="26.9673" height="304.5" filterUnits="userSpaceOnUse" color-interpolation-filters="sRGB">
<feFlood flood-opacity="0" result="BackgroundImageFix"/>
<feColorMatrix in="SourceAlpha" type="matrix" values="0 0 0 0 0 0 0 0 0 0 0 0 0 0 0 0 0 0 127 0" result="hardAlpha"/>
<feOffset dy="4"/>
<feGaussianBlur stdDeviation="2"/>
<feComposite in2="hardAlpha" operator="out"/>
<feColorMatrix type="matrix" values="0 0 0 0 0 0 0 0 0 0 0 0 0 0 0 0 0 0 0.25 0"/>
<feBlend mode="normal" in2="BackgroundImageFix" result="effect1_dropShadow_167_356"/>
<feBlend mode="normal" in="SourceGraphic" in2="effect1_dropShadow_167_356" result="shape"/>
</filter>
</defs>
</svg>
