<svg width="1055" height="595" viewBox="0 0 1055 595" fill="none" xmlns="http://www.w3.org/2000/svg">
<path d="M83 0.5L81.5345 6.08441L87.1035 4.56137L83 0.5ZM78.8626 284.981C79.4849 285.159 80.0623 284.958 80.5499 284.532C81.0202 284.121 81.4376 283.478 81.8189 282.671C82.5847 281.049 83.2839 278.587 83.927 275.424C85.2158 269.086 86.306 259.793 87.2074 248.426C89.0108 225.686 90.0639 194.573 90.4227 162.022C90.7816 129.47 90.4462 95.4706 89.4715 66.9555C88.4973 38.4578 86.8837 15.3922 84.676 4.73678L83.6968 4.93965C85.8841 15.4966 87.4973 38.4742 88.472 66.9896C89.4462 95.4876 89.7815 129.471 89.4228 162.011C89.0641 194.552 88.0114 225.639 86.2106 248.347C85.3099 259.705 84.2234 268.948 82.9471 275.225C82.3077 278.369 81.6272 280.735 80.9146 282.244C80.5566 283.002 80.2102 283.501 79.8916 283.779C79.5904 284.043 79.354 284.081 79.1374 284.019L78.8626 284.981Z" fill="#FF0000"/>
<path d="M161 0.5L155.401 -0.909715L156.98 4.64381L161 0.5ZM79 285C84.2419 285 88.712 280.653 92.6133 273.417C96.5352 266.143 99.9875 255.761 103.123 243.286C109.394 218.328 114.429 184.852 119.373 150.777C124.319 116.688 129.174 81.9953 135.086 54.5576C138.043 40.8382 141.259 28.9543 144.876 19.8768C146.684 15.3384 148.586 11.5154 150.598 8.51998C152.611 5.52129 154.715 3.38006 156.915 2.16772L156.432 1.29192C154.041 2.60985 151.829 4.89173 149.767 7.96253C147.703 11.0366 145.77 14.9294 143.947 19.5067C140.3 28.6608 137.07 40.6079 134.109 54.347C128.187 81.8264 123.327 116.561 118.383 150.634C113.438 184.722 108.41 218.143 102.153 243.042C99.0233 255.495 95.5949 265.78 91.7331 272.943C87.8508 280.143 83.6343 284 79 284V285Z" fill="#FF0000"/>
<path d="M486.5 83L482.54 87.2016L488.159 88.5301L486.5 83ZM79 284.5C79 285 79.0015 285 79.0044 285C79.0071 285 79.0113 285 79.0169 285C79.0279 285 79.0444 285 79.0662 285C79.1098 285 79.175 285 79.2613 284.999C79.4339 284.998 79.6913 284.997 80.0308 284.994C80.7097 284.988 81.7173 284.976 83.0332 284.952C85.665 284.904 89.5301 284.807 94.466 284.615C104.338 284.229 118.493 283.459 135.633 281.918C169.911 278.836 216.134 272.672 263.9 260.342C359.379 235.697 461.267 186.35 485.953 87.4872L484.983 87.2449C460.445 185.516 359.099 234.736 263.65 259.374C215.952 271.686 169.787 277.843 135.544 280.922C118.423 282.461 104.284 283.231 94.427 283.615C89.4984 283.808 85.6402 283.904 83.0149 283.952C81.7022 283.976 80.6978 283.988 80.0219 283.994C79.6839 283.997 79.4281 283.999 79.2569 283.999C79.1713 284 79.1069 284 79.064 284C79.0425 284 79.0265 284 79.0158 284C79.0104 284 79.0065 284 79.0038 284C79.0012 284 79 284 79 284.5Z" fill="#FF0000"/>
<path d="M730.5 83L726.505 87.1684L732.113 88.5437L730.5 83ZM79 284.5C79 285 79.0024 285 79.007 285C79.0116 285 79.0185 285 79.0276 285C79.0459 285 79.0732 285 79.1095 285C79.1822 285 79.2908 285 79.4347 284.999C79.7227 284.998 80.1522 284.997 80.7189 284.994C81.8523 284.988 83.5346 284.976 85.7309 284.952C90.1234 284.904 96.5719 284.807 104.797 284.615C121.248 284.23 144.807 283.459 173.243 281.919C230.112 278.838 306.491 272.677 384.522 260.352C462.547 248.029 542.251 229.539 605.758 201.792C669.24 174.056 716.67 137.01 729.912 87.4952L728.946 87.2369C715.827 136.289 668.773 173.168 605.357 200.876C541.965 228.573 462.357 247.046 384.366 259.364C306.38 271.682 230.037 277.841 173.188 280.921C144.765 282.46 121.216 283.23 104.774 283.615C96.5529 283.808 90.1086 283.904 85.7199 283.952C83.5256 283.976 81.8452 283.988 80.7136 283.994C80.1478 283.997 79.7192 283.999 79.4321 283.999C79.2886 284 79.1804 284 79.1082 284C79.0721 284 79.045 284 79.027 284C79.0179 284 79.0112 284 79.0067 284C79.0022 284 79 284 79 284.5Z" fill="#FF0000"/>
<path d="M489 206L491.971 201.049L486.198 200.952L489 206ZM892 0.5C892 0 891.998 2.98023e-08 891.995 1.54972e-06C891.992 3.06964e-06 891.988 6.16908e-06 891.981 1.2219e-05C891.969 2.43783e-05 891.951 4.85778e-05 891.927 9.68277e-05C891.878 0.000193328 891.806 0.000386029 891.711 0.000770748C891.519 0.00154018 891.234 0.00307778 890.858 0.00615036C890.106 0.0122955 888.991 0.0245806 887.536 0.0491406C884.627 0.0982603 880.36 0.19648 874.928 0.392881C864.065 0.785679 848.54 1.57122 829.891 3.1422C792.594 6.28399 742.793 12.568 692.788 25.1386C642.789 37.7075 592.549 56.5703 554.403 84.8903C516.244 113.22 490.163 151.034 488.576 201.472L489.576 201.504C491.151 151.448 517.016 113.892 554.999 85.6933C592.994 57.4854 643.09 38.663 693.031 26.1084C742.967 13.5555 792.71 7.27776 829.974 4.13867C848.605 2.56922 864.114 1.78454 874.964 1.39223C880.389 1.19607 884.65 1.09802 887.553 1.049C889.005 1.02449 890.117 1.01224 890.866 1.00612C891.241 1.00306 891.525 1.00153 891.715 1.00076C891.81 1.00038 891.881 1.00019 891.929 1.00009C891.953 1.00005 891.97 1.00002 891.982 1.00001C891.988 1.00001 891.993 1 891.996 1C891.999 1 892 1 892 0.5Z" fill="#FF0000"/>
<path d="M0.5 363L-2.32157 368.037L3.45144 367.962L0.5 363ZM375 590C375 589.5 374.999 589.5 374.996 589.5C374.993 589.5 374.989 589.5 374.984 589.5C374.973 589.5 374.956 589.5 374.934 589.5C374.89 589.5 374.823 589.5 374.735 589.499C374.558 589.498 374.294 589.497 373.946 589.493C373.249 589.486 372.214 589.473 370.864 589.446C368.163 589.392 364.2 589.283 359.152 589.066C349.058 588.632 334.63 587.763 317.298 586.026C282.633 582.552 236.365 575.604 189.936 561.712C97.0317 533.913 3.73483 478.396 1.05863 367.513L0.058919 367.537C2.75222 479.129 96.676 534.85 189.65 562.67C236.16 576.586 282.495 583.543 317.199 587.021C334.552 588.76 348.999 589.63 359.109 590.065C364.165 590.282 368.136 590.391 370.844 590.446C372.198 590.473 373.236 590.486 373.936 590.493C374.286 590.497 374.552 590.498 374.73 590.499C374.819 590.5 374.886 590.5 374.932 590.5C374.954 590.5 374.971 590.5 374.983 590.5C374.988 590.5 374.993 590.5 374.995 590.5C374.998 590.5 375 590.5 375 590Z" fill="#FF0000"/>
<path d="M326 277.5L328.275 282.806L331.733 278.183L326 277.5ZM375 589.5C373.82 589.5 372.584 588.61 371.315 586.59C370.06 584.595 368.861 581.631 367.717 577.799C365.431 570.141 363.4 559.145 361.547 545.822C357.842 519.183 354.86 483.339 351.948 446.52C349.036 409.71 346.194 371.928 342.77 341.441C341.058 326.198 339.199 312.767 337.111 302.186C336.066 296.896 334.964 292.31 333.79 288.562C332.62 284.822 331.369 281.885 330.017 279.913L329.192 280.478C330.46 282.327 331.675 285.153 332.836 288.861C333.995 292.562 335.089 297.109 336.129 302.38C338.21 312.92 340.065 326.319 341.776 341.553C345.198 372.019 348.038 409.779 350.951 446.599C353.863 483.411 356.847 519.286 360.557 545.96C362.411 559.294 364.45 570.352 366.759 578.085C367.912 581.948 369.142 585.013 370.468 587.123C371.779 589.209 373.276 590.5 375 590.5V589.5Z" fill="#FF0000"/>
<path d="M566 283L571.766 283.295L569.138 278.154L566 283ZM599 590.5C599.337 590.5 599.608 590.324 599.808 590.115C600.007 589.907 600.179 589.624 600.332 589.299C600.638 588.647 600.921 587.711 601.186 586.535C601.717 584.174 602.2 580.732 602.63 576.381C603.49 567.672 604.144 555.252 604.535 540.39C605.316 510.663 605.044 471.131 603.251 431.895C601.458 392.664 598.144 353.71 592.836 325.147C590.183 310.872 587.026 299.155 583.294 291.293C581.429 287.364 579.401 284.356 577.186 282.478C574.954 280.585 572.511 279.828 569.888 280.466L570.125 281.438C572.375 280.89 574.498 281.51 576.539 283.241C578.598 284.986 580.552 287.849 582.39 291.722C586.065 299.464 589.204 311.076 591.852 325.33C597.148 353.824 600.46 392.724 602.252 431.941C604.044 471.154 604.316 510.662 603.535 540.364C603.145 555.216 602.491 567.608 601.635 576.282C601.206 580.622 600.728 584.015 600.21 586.315C599.95 587.469 599.686 588.321 599.427 588.874C599.296 589.151 599.179 589.326 599.086 589.423C598.993 589.52 598.966 589.5 599 589.5V590.5Z" fill="#FF0000"/>
<path d="M655 284L649.227 284.082L652.184 289.04L655 284ZM599 590.5C600.902 590.5 602.599 589.269 604.115 587.194C605.637 585.11 607.048 582.082 608.371 578.269C611.018 570.637 613.354 559.729 615.479 546.586C619.728 520.294 623.145 484.954 626.483 448.756C629.822 412.548 633.083 375.479 637.022 345.7C638.991 330.811 641.128 317.757 643.525 307.553C644.724 302.45 645.986 298.07 647.32 294.533C648.658 290.988 650.056 288.326 651.512 286.632L650.754 285.98C649.185 287.806 647.737 290.595 646.385 294.18C645.029 297.772 643.756 302.198 642.552 307.324C640.143 317.576 638.001 330.668 636.03 345.569C632.089 375.373 628.825 412.467 625.487 448.664C622.148 484.87 618.734 520.175 614.491 546.427C612.369 559.557 610.044 570.395 607.426 577.941C606.116 581.718 604.744 584.637 603.307 586.604C601.865 588.579 600.429 589.5 599 589.5V590.5Z" fill="#FF0000"/>
<path d="M1052 283L1050.38 288.542L1055.99 287.173L1052 283ZM598.952 590.498C821.809 612.158 937.583 548.291 996.583 472.961C1026.07 435.31 1041.35 394.827 1048.74 360.799C1056.13 326.782 1055.64 299.186 1053.56 287.289L1052.58 287.462C1054.63 299.202 1055.13 326.665 1047.77 360.587C1040.4 394.499 1025.17 434.836 995.796 472.344C937.064 547.332 821.67 611.139 599.048 589.502L598.952 590.498Z" fill="#FF0000"/>
</svg>
