<svg width="498" height="7" viewBox="0 0 498 7" fill="none" xmlns="http://www.w3.org/2000/svg">
<path d="M0 0L4.34785 3.79863L5.46363 -1.86603L0 0ZM498 7C498 6.5 497.998 6.5 497.995 6.5C497.992 6.5 497.987 6.5 497.98 6.5C497.966 6.5 497.946 6.5 497.919 6.5C497.866 6.49999 497.785 6.49999 497.679 6.49998C497.466 6.49995 497.148 6.49991 496.729 6.49981C495.889 6.49963 494.643 6.49925 493.016 6.4985C489.761 6.49701 484.98 6.49401 478.878 6.48803C466.673 6.47606 449.181 6.45212 428.031 6.40423C385.732 6.30846 328.803 6.11692 270.285 5.73385C211.767 5.35077 151.661 4.77616 103.007 3.91428C54.3362 3.05211 17.1626 1.90276 4.48022 0.37429L4.36057 1.36711C17.107 2.90329 54.3454 4.05243 102.989 4.91412C151.649 5.7761 211.759 6.35074 270.279 6.73383C328.798 7.11691 385.729 7.30846 428.029 7.40423C449.179 7.45211 466.672 7.47606 478.877 7.48803C484.98 7.49401 489.76 7.49701 493.015 7.4985C494.643 7.49925 495.889 7.49963 496.728 7.49981C497.148 7.49991 497.466 7.49995 497.679 7.49998C497.785 7.49999 497.866 7.49999 497.919 7.5C497.946 7.5 497.966 7.5 497.98 7.5C497.987 7.5 497.992 7.5 497.995 7.5C497.998 7.5 498 7.5 498 7Z" fill="#0088FF"/>
</svg>
